<?xml version="1.0" encoding="UTF-8"?>
<svg version="1.1" xmlns="http://www.w3.org/2000/svg" width="5000" height="4000">
<path d="M0 0 C1650 0 3300 0 5000 0 C5000 1320 5000 2640 5000 4000 C3350 4000 1700 4000 0 4000 C0 2680 0 1360 0 0 Z " fill="#0E0E0E" transform="translate(0,0)"/>
<path d="M0 0 C2.33156275 0.00568372 4.66311808 0.00847723 6.99468613 0.0110817 C33.42311789 0.05386297 59.70613628 0.80955553 86.02999496 3.31805801 C87.37054947 3.44534286 87.37054947 3.44534286 88.73818588 3.57519913 C172.44246917 11.63877353 255.69839705 30.59074262 434.13253403 108.70526505 C437.26289244 110.44769407 440.40698283 112.16346196 443.55343246 113.87665176 C500.60050979 145.04721084 554.67541327 183.62558922 602.81515121 227.31805801 C604.80411998 229.1140933 606.81562691 230.87759105 608.84249496 232.63055801 C621.10083553 243.36060678 632.64105438 254.77208284 644.14327621 266.30096817 C646.91687859 269.07996475 649.69583178 271.85353084 652.47530746 274.62665176 C654.26208677 276.41409138 656.04855612 278.20184091 657.83468246 279.98993301 C658.65459671 280.80782303 659.47451096 281.62571304 660.31927109 282.4683876 C664.55500326 286.72127337 668.64320712 291.04424634 672.55117416 295.60112381 C674.76842334 298.17538497 677.08930594 300.64449547 679.40499496 303.13055801 C683.67839467 307.75586754 687.71883226 312.51887703 691.66671371 317.42743301 C693.82314076 320.06504626 696.031884 322.64049105 698.2699852 325.20819473 C704.37704086 332.22464381 710.07948985 339.4847706 715.68233871 346.90790176 C717.91431314 349.86312237 720.17637172 352.79044511 722.47140121 355.69696426 C754.97853203 396.86628399 782.85351856 442.21065948 806.74972153 488.85174942 C807.88508138 491.03889764 809.04973219 493.20394442 810.24093246 495.36102676 C834.47101855 539.35909135 851.66140994 587.66828858 867.02999496 635.31805801 C867.43604965 636.57392715 867.84210434 637.8297963 868.26046371 639.12372208 C886.35400601 695.67376083 897.23741912 754.6903806 903.27999496 813.69305801 C903.35721786 814.43146927 903.43444077 815.16988052 903.51400375 815.93066788 C906.43600648 844.30275702 907.41891885 872.78123542 907.34805298 901.28806305 C907.34236926 903.6196258 907.33957575 905.95118113 907.33697128 908.28274918 C907.27440041 946.93634169 905.28606938 985.39153364 899.87345505 1023.70209122 C899.38117831 1027.18852939 899.03083406 1030.43201426 899.05685043 1033.96527481 C898.96425932 1038.31284856 898.6694107 1041.60867113 895.54632187 1044.86505508 C890.52539745 1049.12553543 884.88810413 1052.46206813 879.27999496 1055.88055801 C877.49957326 1057.00810593 875.72184067 1058.13991057 873.94674301 1059.27582169 C870.36189961 1061.56424929 866.7655599 1063.83254112 863.15841293 1066.08563614 C856.57703974 1070.21153365 850.1338783 1074.53472674 843.69686508 1078.88095474 C840.66637947 1080.92310625 837.6240019 1082.94730311 834.58077621 1084.97040176 C834.01418289 1085.34718567 833.44758957 1085.72396957 832.86382675 1086.11217117 C785.48360735 1117.59072693 737.09130682 1148.04415775 686.86886215 1174.80243301 C684.10718594 1176.27684701 681.35346268 1177.76530885 678.60030746 1179.25555801 C663.06373174 1187.606611 647.01925599 1194.30675944 630.682827 1200.91376114 C630.01253464 1201.1848671 629.34224228 1201.45597305 628.65163803 1201.73529434 C627.26965815 1202.29419802 625.88761796 1202.85295259 624.50551987 1203.41156387 C609.56645067 1209.45437245 594.79240281 1215.85779728 580.02999496 1222.31805801 C547.8590856 1236.39613421 515.63990406 1250.28386925 483.02999496 1263.31805801 C482.17119736 1263.66183487 481.31239975 1264.00561172 480.42757797 1264.35980606 C398.99571424 1296.93255156 315.10141658 1325.01761717 188.15108871 1341.73993301 C187.48962341 1341.79219543 186.82815811 1341.84445786 186.14664841 1341.89830399 C182.58618731 1342.16739649 179.03417083 1342.36415069 175.4652977 1342.48065567 C174.3278083 1342.52515854 174.3278083 1342.52515854 173.16733932 1342.57056046 C171.72425816 1342.62433829 170.28053764 1342.66380687 168.83662033 1342.68567276 C162.37834846 1342.9412391 157.8623854 1345.50454927 153.03390121 1349.70868301 C151.15843202 1351.33782921 149.27209666 1352.95464807 147.36983871 1354.55243301 C144.15771948 1357.38094664 141.09458571 1360.33149395 138.02999496 1363.31805801 C137.16954575 1364.1474086 136.30909653 1364.97675919 135.42257309 1365.83124161 C118.67681741 1381.77077631 118.67681741 1381.77077631 105.02999496 1400.31805801 C104.64746567 1400.94728165 104.26493637 1401.57650528 103.87081528 1402.2247963 C93.79858161 1418.92907065 86.14999407 1436.9809217 83.48702621 1456.41180801 C83.3362059 1457.04087051 83.18538559 1457.66993301 83.02999496 1458.31805801 C82.36999496 1458.64805801 81.70999496 1458.97805801 81.02999496 1459.31805801 C80.39906768 1426.18628689 80.39906768 1426.18628689 84.02999496 1413.31805801 C84.20740219 1412.65080704 84.38480942 1411.98355606 84.56759262 1411.29608536 C90.07759697 1390.98057316 100.63739297 1372.43902134 114.02999496 1356.31805801 C114.55158188 1355.68512833 115.07316879 1355.05219864 115.61056137 1354.40008926 C124.32204555 1343.88337864 133.36997852 1334.88899741 144.02999496 1326.31805801 C146.83010725 1324.00136484 149.62881643 1321.68303081 152.42452621 1319.36102676 C153.2843309 1318.68684708 154.14413559 1318.01266739 155.02999496 1317.31805801 C156.27039536 1316.29857071 156.27039536 1316.29857071 157.53585434 1315.2584877 C162.22642602 1312.65363417 166.25261828 1312.50500807 171.54171371 1312.22821426 C172.57002304 1312.15894226 173.59833237 1312.08967026 174.65780258 1312.0182991 C176.86331304 1311.8699929 179.06931135 1311.72880163 181.27569199 1311.59405899 C187.09307672 1311.23319658 192.90513332 1310.8023128 198.71749496 1310.36883926 C199.87234894 1310.28310654 201.02720291 1310.19737381 202.21705246 1310.10904312 C267.61814113 1305.11746617 331.94472373 1286.42194828 393.90499496 1265.81805801 C394.79994675 1265.52055649 395.69489853 1265.22305496 396.61697006 1264.91653824 C409.95561548 1260.4757551 409.95561548 1260.4757551 423.02999496 1255.31805801 C350.487572 1238.34490659 278.6040306 1236.94536785 207.526577 1261.14227676 C192.81850168 1266.13440692 177.99749177 1270.74330491 163.15499496 1275.31805801 C161.96091019 1275.68686081 160.76682541 1276.0556636 159.53655624 1276.43564224 C152.94559042 1278.4702075 146.35053989 1280.49043192 139.74898911 1282.49039078 C137.37388101 1283.21337842 135.00323395 1283.94901464 132.63351059 1284.6893959 C126.06630022 1286.68351855 120.15410172 1287.96025889 113.27999496 1287.75555801 C112.06497299 1287.73465103 112.06497299 1287.73465103 110.82540512 1287.71332169 C104.85449345 1287.52901947 99.51231738 1286.81645956 94.02999496 1284.31805801 C93.29007309 1283.98934708 92.55015121 1283.66063614 91.78780746 1283.32196426 C80.02673775 1277.44142941 72.85372278 1267.95354811 66.11690903 1257.06171036 C65.17605636 1255.55237304 64.19625429 1254.067447 63.20968246 1252.58758926 C58.01880343 1244.59259216 55.8760613 1235.91755171 53.69796371 1226.74774551 C43.34020707 1183.2925492 19.09288242 1164.73050598 -16.3147316 1139.85126114 C-30.98594513 1129.54101962 -45.47179226 1119.14116791 -58.97000504 1107.31805801 C-59.66738785 1106.73153458 -60.36477066 1106.14501114 -61.08328629 1105.54071426 C-63.08918616 1103.84213653 -65.03552895 1102.09777602 -66.97000504 1100.31805801 C-67.44405777 1099.88332169 -67.9181105 1099.44858536 -68.40652847 1099.0006752 C-103.28592045 1066.65406369 -111.41535837 1014.7499936 -123.35195923 970.64712143 C-137.33800829 901.73996876 -137.33800829 901.73996876 -175.63406754 846.54462051 C-178.36770562 845.00083041 -181.11495368 843.62190673 -183.97000504 842.31805801 C-184.6725441 841.98934708 -185.37508316 841.66063614 -186.09891129 841.32196426 C-193.58267548 838.16215272 -201.62713403 837.23575262 -209.38406754 839.92743301 C-219.89619754 845.58048178 -225.42501854 855.24096105 -228.89188004 866.24383926 C-235.27988557 888.51146232 -232.93215673 913.97672712 -227.97000504 936.31805801 C-227.77696793 937.22201309 -227.58393082 938.12596817 -227.3850441 939.05731583 C-223.53279531 956.7877811 -217.75215684 973.97832974 -212.2267952 991.23825455 C-189.27107962 1063.03633358 -189.27107962 1063.03633358 -194.97000504 1096.31805801 C-196.97000504 1095.31805801 -196.97000504 1095.31805801 -197.69249344 1093.39914322 C-198.02672569 1092.13141571 -198.02672569 1092.13141571 -198.36771011 1090.83807755 C-198.62640381 1089.87421127 -198.8850975 1088.910345 -199.1516304 1087.91727066 C-199.56639381 1086.32515259 -199.56639381 1086.32515259 -199.98953629 1084.70087051 C-200.59937921 1082.41928955 -201.20924342 1080.13771428 -201.81912613 1077.85614395 C-202.13903519 1076.64728531 -202.45894424 1075.43842667 -202.78854752 1074.19293594 C-218.4113548 1015.038455 -218.4113548 1015.038455 -239.15164566 957.53607559 C-250.7157563 929.04339187 -259.08835829 891.07173401 -246.72000504 861.56805801 C-246.36422379 860.83071426 -246.00844254 860.09337051 -245.64188004 859.33368301 C-244.78641949 856.76730138 -244.94932735 855.82335778 -245.97000504 853.31805801 C-247.25190092 851.28470592 -248.59157311 849.28724648 -249.97000504 847.31805801 C-253.85992752 841.7610259 -253.85992752 841.7610259 -254.4553566 839.36493301 C-255.01052323 837.15690785 -255.82621844 835.62775447 -257.01688004 833.69305801 C-257.65726212 832.6469838 -257.65726212 832.6469838 -258.31058121 831.57977676 C-258.77569107 830.83340958 -259.24080093 830.08704239 -259.72000504 829.31805801 C-260.19865005 828.54075333 -260.67729507 827.76344864 -261.17044449 826.96258926 C-265.61589709 819.78712254 -270.22796676 812.71973431 -274.90457535 805.69305801 C-275.43534683 804.88868301 -275.96611832 804.08430801 -276.51297379 803.25555801 C-276.98759048 802.54270645 -277.46220718 801.82985489 -277.95120621 801.09540176 C-278.97000504 799.31805801 -278.97000504 799.31805801 -278.97000504 797.31805801 C-279.63000504 797.31805801 -280.29000504 797.31805801 -280.97000504 797.31805801 C-281.30000504 797.97805801 -281.63000504 798.63805801 -281.97000504 799.31805801 C-286.20365661 793.0710866 -290.43236232 786.82078758 -294.65750504 780.56805801 C-295.30071701 779.61621628 -295.94392899 778.66437454 -296.60663223 777.68368912 C-307.9535592 760.88143795 -319.15089658 743.98444438 -330.24808121 727.0163002 C-335.04181814 719.69857149 -339.8324858 712.40023843 -344.97000504 705.31805801 C-350.73975442 697.36433478 -356.08420096 689.13612559 -361.46136856 680.91412735 C-372.27787582 664.38132032 -383.21589478 647.93441686 -394.28250504 631.56805801 C-394.89985519 630.65496872 -395.51720535 629.74187943 -396.15326309 628.80112076 C-398.53780909 625.27459976 -400.92244424 621.74813919 -403.30760574 618.22203445 C-408.15601071 611.05117105 -412.9599512 603.85173976 -417.74783707 596.64032364 C-421.922994 590.36284468 -426.13265895 584.10957982 -430.35672379 577.86493301 C-432.79049536 574.2660949 -435.22412182 570.66715874 -437.65750504 567.06805801 C-438.27302231 566.15775833 -438.88853958 565.24745865 -439.52270889 564.30957413 C-450.50890796 548.05265338 -461.33894728 531.69644222 -472.07620621 515.2741127 C-477.85870972 506.44564119 -483.74005568 497.71583069 -489.8641243 489.12028885 C-493.79863031 483.59222059 -497.56139476 477.97043436 -501.22000504 472.25555801 C-501.78590347 471.37835098 -502.35180191 470.50114395 -502.93484879 469.59735489 C-504.28316443 467.50632299 -505.62826022 465.41330948 -506.97000504 463.31805801 C-505.92017926 466.46753535 -504.53847158 468.80806096 -502.79422379 471.63055801 C-502.13744644 472.69596817 -501.4806691 473.76137833 -500.80398941 474.85907364 C-500.08861501 476.01214313 -499.37311728 477.16513611 -498.65750504 478.31805801 C-497.92231426 479.50740933 -497.18728966 480.69686337 -496.45242691 481.88641739 C-491.86451546 489.30426613 -487.22714089 496.69001615 -482.55081558 504.05243301 C-478.29379083 510.76886582 -474.12888234 517.54051974 -469.97000504 524.31805801 C-464.8558751 532.65054726 -459.70334444 540.95488298 -454.46902847 549.21234512 C-445.12811819 563.94886841 -435.91154621 578.76195496 -426.78250504 593.63055801 C-421.25583255 602.63132791 -415.66764819 611.58871974 -410.01297379 620.50946426 C-401.15981521 634.48153837 -392.43704538 648.53478142 -383.78250504 662.63055801 C-378.73236779 670.85523993 -373.64294949 679.05152113 -368.47488785 687.2025795 C-359.17628604 701.86901054 -350.01033537 716.61900063 -340.87991714 731.39056778 C-334.28262318 742.0576145 -327.62381234 752.68620996 -320.97000504 763.31805801 C-313.24625151 775.65952962 -305.53396522 788.00739684 -297.87918472 800.39178848 C-291.92151824 810.02449755 -285.91211885 819.62473531 -279.90359879 829.22577286 C-277.93370601 832.37610896 -275.96704775 835.52844333 -274.00125504 838.68133926 C-272.69923006 840.76861525 -271.39714769 842.85585544 -270.09500504 844.94305801 C-269.47182388 845.94264542 -268.84864273 846.94223282 -268.2065773 847.97211075 C-264.02259843 854.67061562 -259.76451682 861.31421145 -255.41141129 867.90399551 C-253.97000504 870.31805801 -253.97000504 870.31805801 -253.97000504 872.31805801 C-254.63000504 872.31805801 -255.29000504 872.31805801 -255.97000504 872.31805801 C-257.78687833 869.81095858 -259.48393485 867.29431224 -261.15750504 864.69305801 C-262.24484638 863.03211535 -263.3334446 861.371995 -264.42313004 859.71258926 C-264.9999855 858.83167618 -265.57684097 857.95076309 -266.17117691 857.04315567 C-269.19990214 852.4548507 -272.30374472 847.91830124 -275.40750504 843.38055801 C-276.04051529 842.45380264 -276.67352554 841.52704727 -277.32571793 840.5722084 C-279.2061057 837.82011133 -281.08788203 835.0689686 -282.97000504 832.31805801 C-284.0989319 830.66703045 -285.22783892 829.0159893 -286.35672379 827.36493301 C-289.02907422 823.45740549 -291.7028991 819.55088935 -294.3772316 815.64471817 C-297.61912931 810.9090828 -300.85933981 806.17229278 -304.09988785 801.4357338 C-306.78262048 797.51463117 -309.46571885 793.59378002 -312.14969254 789.67352676 C-318.56989458 780.29499633 -324.97832746 770.90853225 -331.37918472 761.51678848 C-337.03520744 753.21924871 -342.70429349 744.93069885 -348.3772316 736.64471817 C-351.61912931 731.9090828 -354.85933981 727.17229278 -358.09988785 722.4357338 C-360.78262048 718.51463117 -363.46571885 714.59378002 -366.14969254 710.67352676 C-372.56989458 701.29499633 -378.97832746 691.90853225 -385.37918472 682.51678848 C-391.56458434 673.44263834 -397.76589645 664.37942252 -403.97000504 655.31805801 C-411.45090228 644.39188935 -418.92166755 633.45893069 -426.37918472 622.51678848 C-432.03520744 614.21924871 -437.70429349 605.93069885 -443.3772316 597.64471817 C-446.61912931 592.9090828 -449.85933981 588.17229278 -453.09988785 583.4357338 C-455.78262048 579.51463117 -458.46571885 575.59378002 -461.14969254 571.67352676 C-467.56989458 562.29499633 -473.97832746 552.90853225 -480.37918472 543.51678848 C-486.01621308 535.24711396 -491.666206 526.98636179 -497.32010269 518.72821426 C-500.3084238 514.36291299 -503.29536216 509.99666558 -506.28250504 505.63055801 C-507.38275988 504.02248128 -508.48301975 502.41440799 -509.58328629 500.80633926 C-510.3788592 499.64357885 -511.17443212 498.48081843 -511.97000504 497.31805801 C-510.10314611 501.13985969 -507.91890287 504.71999586 -505.65750504 508.31805801 C-505.22236588 509.01229874 -504.78722672 509.70653946 -504.33890152 510.42181778 C-499.16782061 518.63951132 -493.85503889 526.76506695 -488.54861832 534.89569473 C-486.17985828 538.53052879 -483.82453144 542.17399418 -481.47000504 545.81805801 C-477.47949438 551.99091338 -473.47751769 558.15622795 -469.47000504 564.31805801 C-464.0721879 572.61805544 -458.68823873 580.92690765 -453.31277847 589.24139786 C-451.03276575 592.76754118 -448.75130297 596.2927461 -446.47000504 599.81805801 C-445.55333162 601.23472032 -444.63666495 602.65138698 -443.72000504 604.06805801 C-443.26625504 604.76930801 -442.81250504 605.47055801 -442.34500504 606.19305801 C-416.22000504 646.568058 -416.22000504 646.568058 -414.84549332 648.69232559 C-413.92722603 650.11145113 -413.00893168 651.53055915 -412.0906105 652.94964981 C-409.82321303 656.45355398 -407.55626002 659.95774396 -405.29031754 663.46258926 C-400.35996259 671.08744052 -395.42030308 678.70613709 -390.47000504 686.31805801 C-385.07221522 694.61807326 -379.68823878 702.92690757 -374.31277847 711.24139786 C-372.03276575 714.76754118 -369.75130297 718.2927461 -367.47000504 721.81805801 C-366.55333162 723.23472032 -365.63666495 724.65138698 -364.72000504 726.06805801 C-364.26625504 726.76930801 -363.81250504 727.47055801 -363.34500504 728.19305801 C-348.22000502 751.56805804 -348.22000502 751.56805804 -346.84549332 753.69232559 C-345.92722603 755.11145113 -345.00893168 756.53055915 -344.0906105 757.94964981 C-341.82321303 761.45355398 -339.55626002 764.95774396 -337.29031754 768.46258926 C-331.81144463 776.93572992 -326.31974544 785.40041155 -320.81741714 793.85834122 C-317.7199043 798.62101501 -314.63051828 803.38878954 -311.54935074 808.16205215 C-306.75336717 815.59115774 -301.90442983 822.9800452 -296.97000504 830.31805801 C-297.30000504 830.97805801 -297.63000504 831.63805801 -297.97000504 832.31805801 C-300.91385606 832.00293472 -301.83081378 831.48408086 -303.76590347 829.17596817 C-304.36435074 828.24574844 -304.962798 827.31552872 -305.57938004 826.35712051 C-306.25227066 825.32715958 -306.92516129 824.29719864 -307.61844254 823.23602676 C-308.31195816 822.14934708 -309.00547379 821.06266739 -309.72000504 819.94305801 C-311.08742217 817.82954066 -312.45720731 815.71755346 -313.82938004 813.60712051 C-314.51234146 812.55661514 -315.19530289 811.50610977 -315.89896011 810.4237709 C-318.51783084 806.49654534 -321.28676247 802.69522142 -324.08572769 798.89520645 C-326.90837774 795.03463456 -329.59711629 791.08725953 -332.28250504 787.13055801 C-333.41778909 785.46510303 -334.55320773 783.79973978 -335.68875504 782.13446426 C-336.24434097 781.31864883 -336.79992691 780.5028334 -337.37234879 779.6622963 C-344.13758484 769.73567701 -350.97813984 759.86207328 -357.84500504 750.00555801 C-364.44047349 740.53779416 -370.97522356 731.03039869 -377.47928238 721.49969864 C-381.18922108 716.07028294 -384.92136098 710.65608488 -388.64920425 705.23895645 C-389.94646062 703.35229969 -391.24175008 701.46430885 -392.53641129 699.57587051 C-397.94075894 691.69672955 -403.38298681 683.8448411 -408.84500504 676.00555801 C-415.44052041 666.53782716 -421.97522388 657.03039822 -428.47928238 647.49969864 C-432.18922108 642.07028294 -435.92136098 636.65608488 -439.64920425 631.23895645 C-440.94646062 629.35229969 -442.24175008 627.46430885 -443.53641129 625.57587051 C-448.94075894 617.69672955 -454.38298681 609.8448411 -459.84500504 602.00555801 C-466.44052041 592.53782716 -472.97522388 583.03039822 -479.47928238 573.49969864 C-483.18922108 568.07028294 -486.92136098 562.65608488 -490.64920425 557.23895645 C-491.94646062 555.35229969 -493.24175008 553.46430885 -494.53641129 551.57587051 C-500.81283 542.42545696 -507.13956672 533.31078679 -513.48831558 524.210392 C-516.69537472 519.60902817 -519.88613245 515.00302045 -522.97000504 510.31805801 C-521.12461196 514.27963555 -518.78927261 517.93567902 -516.47000504 521.63055801 C-516.0256813 522.33986465 -515.58135757 523.0491713 -515.12356949 523.77997208 C-511.80590487 529.04937624 -508.38977841 534.24535931 -504.9175148 539.41376114 C-501.5332078 544.45556893 -498.21104843 549.53551066 -494.90750504 554.63055801 C-489.86078277 562.41176827 -484.79717986 570.18167946 -479.72000504 577.94305801 C-479.00385025 579.03787491 -478.28769547 580.1326918 -477.54983902 581.26068497 C-476.08644961 583.49762917 -474.62299389 585.73452987 -473.15945816 587.97137833 C-469.59518304 593.4195366 -466.03266742 598.86884506 -462.47000504 604.31805801 C-461.05334714 606.48473042 -459.63668047 608.65139708 -458.22000504 610.81805801 C-432.72000504 649.81805801 -407.22000504 688.81805801 -381.72000504 727.81805801 C-381.0185939 728.89079971 -380.31718277 729.96354141 -379.59451675 731.06879044 C-378.17946015 733.23300422 -376.76442105 735.39722946 -375.34939957 737.56146622 C-371.78324334 743.01575648 -368.21677222 748.46984038 -364.64969254 753.92352676 C-357.91700033 764.21771557 -351.18759705 774.51400787 -344.47000504 784.81805801 C-342.61446585 787.66333308 -340.7588202 790.50853868 -338.9031105 793.35370255 C-337.57629768 795.38832761 -336.24981785 797.42316986 -334.92361832 799.45819473 C-324.70042043 815.14261403 -314.38685012 830.76172695 -303.97000504 846.31805801 C-304.30000504 846.97805801 -304.63000504 847.63805801 -304.97000504 848.31805801 C-307.39571506 847.94134279 -308.66341979 847.64645013 -310.36355972 845.82538223 C-310.99632828 844.85882706 -310.99632828 844.85882706 -311.64188004 843.87274551 C-312.13317398 843.13709366 -312.62446793 842.4014418 -313.13064957 841.64349747 C-313.65513687 840.83485245 -314.17962418 840.02620743 -314.72000504 839.19305801 C-315.87762748 837.45395625 -317.03653984 835.71571259 -318.19656754 833.97821426 C-318.80790543 833.05669571 -319.41924332 832.13517715 -320.0491066 831.1857338 C-323.33035874 826.28720968 -326.71655097 821.46230907 -330.09500504 816.63055801 C-334.57329656 810.20660613 -339.0423973 803.77705724 -343.47000504 797.31805801 C-350.58213278 786.94693481 -357.78247538 776.63698703 -364.97000504 766.31805801 C-380.68142286 743.76162862 -380.68142286 743.76162862 -387.74856949 733.45306778 C-391.7957709 727.5561894 -395.88234254 721.68693657 -399.97000504 715.81805801 C-404.48849876 709.33061172 -408.99965108 702.83878245 -413.47000504 696.31805801 C-420.58218556 685.94697044 -427.78247496 675.63698762 -434.97000504 665.31805801 C-450.68142286 642.76162862 -450.68142286 642.76162862 -457.74856949 632.45306778 C-461.7957709 626.5561894 -465.88234254 620.68693657 -469.97000504 614.81805801 C-474.91893841 607.71260618 -479.85128509 600.59674124 -484.74734879 593.45477676 C-489.48585337 586.55090213 -494.27721209 579.68388357 -499.06326675 572.81293106 C-502.92595743 567.26484447 -506.7738764 561.70734034 -510.59500504 556.13055801 C-514.68226348 550.16637122 -518.81808511 544.23739457 -522.97000504 538.31805801 C-527.1219279 532.39871726 -531.25743257 526.46953267 -535.34500504 520.50555801 C-540.05518926 513.63822252 -544.7873698 506.78629253 -549.53250504 499.94305801 C-550.23617203 498.92494034 -550.93983902 497.90682266 -551.66482925 496.85785294 C-552.32370132 495.90886124 -552.98257339 494.95986954 -553.66141129 493.98212051 C-554.25123795 493.13085587 -554.84106461 492.27959122 -555.4487648 491.40253067 C-556.94378012 489.24139358 -556.94378012 489.24139358 -558.97000504 487.31805801 C-553.46812314 496.44950838 -547.92025542 505.51980411 -541.95071793 514.35394669 C-538.21286181 519.90506685 -534.61591814 525.54126891 -531.03250504 531.19305801 C-526.91323856 537.68982108 -522.78445237 544.17879327 -518.59500504 550.63055801 C-514.02289741 557.67368081 -509.49257637 564.74303477 -504.97000504 571.81805801 C-500.48766105 578.82961286 -495.99948193 585.83684592 -491.47000504 592.81805801 C-486.23396559 600.88828394 -481.05392907 608.99404277 -475.87234879 617.09930801 C-472.0880268 623.01635036 -468.29291002 628.92587419 -464.47000504 634.81805801 C-459.23396559 642.88828394 -454.05392907 650.99404277 -448.87234879 659.09930801 C-445.08802629 665.01635115 -441.29281239 670.92581036 -437.47000504 676.81805801 C-429.54162736 689.04191263 -421.71486552 701.33120706 -413.86746597 713.60712051 C-406.99937684 724.34992722 -400.13127024 735.09212088 -393.19144058 745.78876114 C-388.38535369 753.20442741 -383.63211459 760.6538643 -378.87234879 768.09930801 C-375.0880268 774.01635036 -371.29291002 779.92587419 -367.47000504 785.81805801 C-362.23396559 793.88828394 -357.05392907 801.99404277 -351.87234879 810.09930801 C-348.0880268 816.01635036 -344.29291002 821.92587419 -340.47000504 827.81805801 C-335.23396559 835.88828394 -330.05392907 843.99404277 -324.87234879 852.09930801 C-321.0880268 858.01635036 -317.29291002 863.92587419 -313.47000504 869.81805801 C-308.23396559 877.88828394 -303.05392907 885.99404277 -297.87234879 894.09930801 C-294.0880265 900.01635083 -290.29285503 905.92583819 -286.47000504 911.81805801 C-276.8838752 926.59575239 -267.42039749 941.45330185 -257.97000504 956.31805801 C-258.63000504 956.64805801 -259.29000504 956.97805801 -259.97000504 957.31805801 C-260.56518936 956.44407364 -260.56518936 956.44407364 -261.17239761 955.55243301 C-268.97790821 944.09248844 -276.79437768 932.64052901 -284.65945816 921.22137833 C-286.93155565 917.92158846 -289.20058417 914.61968901 -291.47000504 911.31805801 C-292.3866579 909.98471519 -293.30332454 908.65138184 -294.22000504 907.31805801 C-321.72000504 867.31805801 -349.22000504 827.31805801 -376.72000504 787.31805801 C-377.40038834 786.32842056 -377.40038834 786.32842056 -378.09451675 785.31879044 C-379.01283865 783.98303468 -379.93113284 782.64725989 -380.84939957 781.31146622 C-383.1155166 778.01504057 -385.38208563 774.71892774 -387.64969254 771.42352676 C-393.15518968 763.42135069 -398.64634891 755.40950806 -404.12918472 747.39178848 C-408.95035003 740.34315897 -413.78631077 733.30478902 -418.6272316 726.26971817 C-420.90909023 722.95314037 -423.18946259 719.63554091 -425.47000504 716.31805801 C-426.3866648 714.98471993 -427.30333146 713.6513866 -428.22000504 712.31805801 C-484.59500504 630.31805801 -484.59500504 630.31805801 -540.97000504 548.31805801 C-539.74071564 552.0059262 -537.71415456 554.9321628 -535.57938004 558.14227676 C-535.12770462 558.82739838 -534.67602921 559.51251999 -534.21066666 560.21840286 C-532.71686199 562.48283991 -531.21839132 564.7441506 -529.72000504 567.00555801 C-528.67080959 568.59450824 -527.6219863 570.18370426 -526.57352066 571.77313614 C-524.41857972 575.03946518 -522.26217392 578.30481972 -520.10477066 581.56952286 C-515.96970773 587.82978567 -511.85495745 594.1033212 -507.74185562 600.37802505 C-505.58974219 603.66077778 -503.43613781 606.94255192 -501.28250504 610.22430801 C-500.85105179 610.88179535 -500.41959854 611.53928268 -499.97507095 612.21669388 C-494.81040901 620.08624195 -489.64011117 627.95208609 -484.47000504 635.81805801 C-476.7011035 647.63792395 -468.93710337 659.46098788 -461.17801285 671.2872963 C-454.2801357 681.80070226 -447.37648838 692.31030388 -440.47000504 702.81805801 C-432.7011035 714.63792395 -424.93710337 726.46098788 -417.17801285 738.2872963 C-410.2801357 748.80070226 -403.37648838 759.31030388 -396.47000504 769.81805801 C-388.7011035 781.63792395 -380.93710337 793.46098788 -373.17801285 805.2872963 C-366.2801357 815.80070226 -359.37648838 826.31030388 -352.47000504 836.81805801 C-345.56322866 847.32625797 -338.65931116 857.83632007 -331.76117325 868.35019302 C-329.17077366 872.29821205 -326.57984002 876.24588063 -323.98897171 880.19359207 C-321.69522443 883.68870591 -319.40188629 887.18408732 -317.10916519 890.67987442 C-304.47360768 909.94483875 -291.78623194 929.17271015 -278.97000504 948.31805801 C-279.97000504 950.31805801 -279.97000504 950.31805801 -281.97000504 951.31805801 C-282.41988785 950.63743301 -282.86977066 949.95680801 -283.33328629 949.25555801 C-288.65314431 941.23845735 -294.08359134 933.302385 -299.54666519 925.38251114 C-301.85797545 922.03012014 -304.16376386 918.67393724 -306.47000504 915.31805801 C-307.38664406 913.98470568 -308.30331075 912.65137236 -309.22000504 911.31805801 C-314.72000504 903.31805801 -320.22000504 895.31805801 -325.72000504 887.31805801 C-326.40038834 886.32842056 -326.40038834 886.32842056 -327.09451675 885.31879044 C-328.01283865 883.98303468 -328.93113284 882.64725989 -329.84939957 881.31146622 C-332.1155166 878.01504057 -334.38208563 874.71892774 -336.64969254 871.42352676 C-342.15518968 863.42135069 -347.64634891 855.40950806 -353.12918472 847.39178848 C-357.95035003 840.34315897 -362.78631077 833.30478902 -367.6272316 826.26971817 C-369.90909023 822.95314037 -372.18946259 819.63554091 -374.47000504 816.31805801 C-375.3866648 814.98471993 -376.30333146 813.6513866 -377.22000504 812.31805801 C-379.05333837 809.65139135 -380.8866717 806.98472468 -382.72000504 804.31805801 C-383.40038834 803.32842056 -383.40038834 803.32842056 -384.09451675 802.31879044 C-385.01283865 800.98303468 -385.93113284 799.64725989 -386.84939957 798.31146622 C-389.1155166 795.01504057 -391.38208563 791.71892774 -393.64969254 788.42352676 C-399.15518968 780.42135069 -404.64634891 772.40950806 -410.12918472 764.39178848 C-414.95035003 757.34315897 -419.78631077 750.30478902 -424.6272316 743.26971817 C-426.90909023 739.95314037 -429.18946259 736.63554091 -431.47000504 733.31805801 C-432.3866648 731.98471993 -433.30333146 730.6513866 -434.22000504 729.31805801 C-436.05333837 726.65139135 -437.8866717 723.98472468 -439.72000504 721.31805801 C-440.1735939 720.65829971 -440.62718277 719.99854141 -441.09451675 719.31879044 C-442.01283865 717.98303468 -442.93113284 716.64725989 -443.84939957 715.31146622 C-446.1155166 712.01504057 -448.38208563 708.71892774 -450.64969254 705.42352676 C-456.15518968 697.42135069 -461.64634891 689.40950806 -467.12918472 681.39178848 C-471.95035003 674.34315897 -476.78631077 667.30478902 -481.6272316 660.26971817 C-483.90909023 656.95314037 -486.18946259 653.63554091 -488.47000504 650.31805801 C-489.3866648 648.98471993 -490.30333146 647.6513866 -491.22000504 646.31805801 C-493.05333837 643.65139135 -494.8866717 640.98472468 -496.72000504 638.31805801 C-497.1735939 637.65829971 -497.62718277 636.99854141 -498.09451675 636.31879044 C-499.01283865 634.98303468 -499.93113284 633.64725989 -500.84939957 632.31146622 C-503.1155166 629.01504057 -505.38208563 625.71892774 -507.64969254 622.42352676 C-513.15518968 614.42135069 -518.64634891 606.40950806 -524.12918472 598.39178848 C-528.95035003 591.34315897 -533.78631077 584.30478902 -538.6272316 577.26971817 C-540.90909023 573.95314037 -543.18946259 570.63554091 -545.47000504 567.31805801 C-546.3866648 565.98471993 -547.30333146 564.6513866 -548.22000504 563.31805801 C-560.59500504 545.31805801 -560.59500504 545.31805801 -572.97000504 527.31805801 C-571.22423287 531.02896638 -569.08285583 534.47413533 -566.90750504 537.94305801 C-566.48267838 538.62182999 -566.05785172 539.30060196 -565.62015152 539.99994278 C-559.8955983 549.0915299 -553.97541987 558.05733399 -548.08328629 567.04071426 C-544.77804406 572.08032339 -541.48903195 577.12989598 -538.22000504 582.19305801 C-534.31407119 588.24174322 -530.39598656 594.28236291 -526.47000504 600.31805801 C-520.17617869 609.99567191 -513.90342055 619.68679375 -507.63602066 629.38153458 C-501.7053897 638.55453239 -495.76187444 647.71900963 -489.80643082 656.87591934 C-485.90684713 662.8731026 -482.01787419 668.87705572 -478.13406754 674.88446426 C-474.58781827 680.36782656 -471.03034046 685.84383335 -467.47000504 691.31805801 C-463.01527433 698.1674679 -458.57007688 705.02291764 -454.13406754 711.88446426 C-450.58781824 717.36782661 -447.03032255 722.84382165 -443.47000504 728.31805801 C-437.17624232 737.99571345 -430.90342068 747.68679354 -424.63602066 757.38153458 C-418.7053897 766.55453239 -412.76187444 775.71900963 -406.80643082 784.87591934 C-402.90684713 790.8731026 -399.01787419 796.87705572 -395.13406754 802.88446426 C-391.58781827 808.36782656 -388.03034046 813.84383335 -384.47000504 819.31805801 C-380.01527433 826.1674679 -375.57007688 833.02291764 -371.13406754 839.88446426 C-367.58781824 845.36782661 -364.03032255 850.84382165 -360.47000504 856.31805801 C-354.17624232 865.99571345 -347.90342068 875.68679354 -341.63602066 885.38153458 C-335.7053897 894.55453239 -329.76187444 903.71900963 -323.80643082 912.87591934 C-319.90684713 918.8731026 -316.01787419 924.87705572 -312.13406754 930.88446426 C-308.03620966 937.2207474 -303.92342443 943.54728179 -299.8081398 949.87225723 C-297.23955636 953.82128767 -294.67431502 957.77232702 -292.12234879 961.73212051 C-285.50646348 971.99611652 -278.77053377 982.17547328 -271.97000504 992.31805801 C-272.30000504 992.97805801 -272.63000504 993.63805801 -272.97000504 994.31805801 C-273.96000504 994.31805801 -274.95000504 994.31805801 -275.97000504 994.31805801 C-277.48576594 992.44565894 -278.76524153 990.6328217 -280.05594254 988.61102676 C-280.46049164 987.99644608 -280.86504074 987.38186539 -281.28184891 986.74866104 C-282.1716335 985.39453779 -283.05666116 984.03728026 -283.93762589 982.6774025 C-285.87414179 979.68900282 -287.83387448 976.71608092 -289.79213333 973.7419014 C-290.85030743 972.13429451 -291.90729238 970.52590436 -292.96318436 968.91679764 C-298.67671226 960.21600694 -304.49700778 951.5882073 -310.32626724 942.96469498 C-312.17656592 940.22735931 -314.02539495 937.48903651 -315.87381363 934.75043106 C-318.35763649 931.07061451 -320.84199523 927.39116094 -323.32693863 923.71210098 C-326.81959294 918.54103321 -330.31103178 913.36914593 -333.80203629 908.19696426 C-334.91637503 906.54600367 -336.03071422 904.89504339 -337.14505386 903.2440834 C-337.69384201 902.4310173 -338.24263016 901.6179512 -338.80804825 900.78024673 C-340.47350022 898.3128799 -342.13909093 895.84560679 -343.80472183 893.37836075 C-352.03014003 881.19405841 -360.25086784 869.00659799 -368.47000504 856.81805801 C-377.84191866 842.92014023 -387.21634095 829.02392142 -396.59500504 815.13055801 C-397.14899979 814.30987839 -397.70299454 813.48919876 -398.27377701 812.64365005 C-402.17239277 806.86836703 -406.07117833 801.09319864 -409.97000504 795.31805801 C-414.42845725 788.71397159 -418.88683046 782.10983186 -423.34500504 775.50555801 C-424.17575546 774.27490112 -424.17575546 774.27490112 -425.02328873 773.01938248 C-434.45362853 759.04912354 -443.87881156 745.07539111 -453.30246353 731.10062027 C-462.02155331 718.17078644 -470.74412014 705.24330696 -479.47000504 692.31805801 C-489.41867313 677.58155697 -499.36217337 662.8415793 -509.30301285 648.0997963 C-517.46786708 635.99186179 -525.63543347 623.88576449 -533.8065834 611.78207779 C-537.69646509 606.02001168 -541.58589701 600.25764196 -545.47537613 594.49530411 C-547.89743063 590.90698937 -550.31966398 587.31879543 -552.74197769 583.73065567 C-555.96537719 578.95573803 -559.18810078 574.18036473 -562.41043472 569.40472794 C-563.62881209 567.59924775 -564.84738887 565.79390211 -566.06619644 563.98871231 C-574.74792665 551.12973892 -583.37654147 538.23618652 -591.97000504 525.31805801 C-590.97530775 528.30214987 -589.75211383 530.43241893 -588.08328629 533.08758926 C-587.48169693 534.04769913 -586.88010757 535.00780899 -586.26028824 535.99701309 C-585.60761978 537.03108292 -584.95495132 538.06515274 -584.28250504 539.13055801 C-583.60985611 540.20136612 -582.93720718 541.27217422 -582.24417496 542.37543106 C-576.63290691 551.296868 -570.97744383 560.19014591 -565.30984879 569.07587051 C-560.66148982 576.36567791 -556.05000182 583.67869772 -551.43777847 590.99139786 C-548.95017146 594.93466046 -546.45994089 598.87626569 -543.97000504 602.81805801 C-542.96999279 604.40138361 -541.96999278 605.98471694 -540.97000504 607.56805801 C-540.47500504 608.35180801 -539.98000504 609.13555801 -539.47000504 609.94305801 C-534.97000504 617.06805801 -534.97000504 617.06805801 -533.47049332 619.44232559 C-532.46891469 621.02813126 -531.46728696 622.61390593 -530.4656105 624.19964981 C-527.98936319 628.11990559 -525.51392803 632.04066909 -523.04031754 635.96258926 C-517.70117249 644.42570216 -512.34560304 652.87804549 -506.97000504 661.31805801 C-501.10367977 670.52854187 -495.26327486 679.75504804 -489.43777847 688.99139786 C-486.95017146 692.93466046 -484.45994089 696.87626569 -481.97000504 700.81805801 C-480.96999279 702.40138361 -479.96999278 703.98471694 -478.97000504 705.56805801 C-478.47500504 706.35180801 -477.98000504 707.13555801 -477.47000504 707.94305801 C-436.97000504 772.068058 -436.97000504 772.068058 -435.47049332 774.44232559 C-434.46891469 776.02813126 -433.46728696 777.61390593 -432.4656105 779.19964981 C-429.98936319 783.11990559 -427.51392803 787.04066909 -425.04031754 790.96258926 C-419.70117249 799.42570216 -414.34560304 807.87804549 -408.97000504 816.31805801 C-403.10367977 825.52854187 -397.26327486 834.75504804 -391.43777847 843.99139786 C-388.95017146 847.93466046 -386.45994089 851.87626569 -383.97000504 855.81805801 C-382.96999279 857.40138361 -381.96999278 858.98471694 -380.97000504 860.56805801 C-380.47500504 861.35180801 -379.98000504 862.13555801 -379.47000504 862.94305801 C-338.97000504 927.06805801 -338.97000504 927.06805801 -337.47049332 929.44232559 C-336.46891469 931.02813126 -335.46728696 932.61390593 -334.4656105 934.19964981 C-331.98936319 938.11990559 -329.51392803 942.04066909 -327.04031754 945.96258926 C-321.70117249 954.42570216 -316.34560304 962.87804549 -310.97000504 971.31805801 C-305.10367977 980.52854187 -299.26327486 989.75504804 -293.43777847 998.99139786 C-290.95017146 1002.93466046 -288.45994089 1006.87626569 -285.97000504 1010.81805801 C-284.96999279 1012.40138361 -283.96999278 1013.98471694 -282.97000504 1015.56805801 C-282.47500504 1016.35180801 -281.98000504 1017.13555801 -281.47000504 1017.94305801 C-261.22000504 1050.00555801 -261.22000504 1050.00555801 -240.97000504 1082.06805801 C-240.4741188 1082.85317764 -239.97823257 1083.63829727 -239.46731949 1084.4472084 C-238.47614862 1086.01662962 -237.48509868 1087.58612722 -236.49417496 1089.1557045 C-233.86012109 1093.32755609 -231.22344245 1097.49772137 -228.58328629 1101.66571426 C-228.030923 1102.53840958 -227.47855972 1103.41110489 -226.90945816 1104.31024551 C-225.84512033 1105.99172041 -224.78004572 1107.67272924 -223.71414566 1109.35321426 C-223.23783707 1110.10602676 -222.76152847 1110.85883926 -222.27078629 1111.63446426 C-221.84966568 1112.29905655 -221.42854507 1112.96364883 -220.99466324 1113.64838028 C-218.163952 1118.26101648 -218.38211837 1123.01923952 -218.97000504 1128.31805801 C-220.86688933 1130.97369603 -222.11485558 1131.89048329 -224.97000504 1133.31805801 C-235.08582511 1133.91991459 -243.35439463 1134.09999972 -252.03250504 1128.25555801 C-268.91200353 1112.79028777 -274.26298483 1085.55740746 -279.92044449 1064.43866348 C-290.93743802 1023.3299906 -310.04088029 974.48913786 -343.97000504 946.31805801 C-346.61492908 945.07214439 -346.61492908 945.07214439 -348.97000504 944.31805801 C-354.17722076 948.94933521 -357.42320481 953.21780108 -359.97000504 959.69305801 C-360.30048843 960.51120987 -360.63097183 961.32936172 -360.97146988 962.17230606 C-371.63502061 989.49351523 -376.87921917 1019.25642787 -379.97000504 1048.31805801 C-380.1008625 1049.53366913 -380.1008625 1049.53366913 -380.23436356 1050.77383804 C-380.9389183 1057.83900885 -381.13406687 1064.84220841 -381.18094254 1071.93915176 C-381.20902953 1074.36428851 -381.23769409 1076.78941862 -381.26688004 1079.21454239 C-381.30786545 1082.9722702 -381.3448236 1086.72987672 -381.37137222 1090.48773575 C-381.52035079 1109.96925226 -382.72200925 1128.36990679 -387.97000504 1147.19305801 C-392.4668322 1164.55047717 -394.23531228 1181.24232937 -394.34500504 1199.13055801 C-394.35304153 1199.85828415 -394.36107803 1200.58601028 -394.36935806 1201.33578873 C-394.48619353 1215.26536967 -392.95735676 1229.08931513 -388.34500504 1242.31805801 C-388.09194595 1243.0531459 -387.83888687 1243.7882338 -387.57815933 1244.54559708 C-382.47359708 1258.73721898 -374.87870627 1271.00346841 -364.97000504 1282.31805801 C-364.26488785 1283.12501114 -363.55977066 1283.93196426 -362.83328629 1284.76337051 C-355.22706355 1292.84769868 -345.85019136 1299.22061767 -336.77469254 1305.54462051 C-335.84914566 1306.19172989 -334.92359879 1306.83883926 -333.97000504 1307.50555801 C-333.18625504 1308.0353627 -332.40250504 1308.56516739 -331.59500504 1309.11102676 C-323.09058368 1316.26132151 -318.49883173 1324.57450719 -314.03250504 1334.56805801 C-308.28405273 1347.36574383 -301.54096773 1358.70999487 -292.22000504 1369.31805801 C-291.72468277 1369.88854874 -291.2293605 1370.45903946 -290.71902847 1371.04681778 C-283.35514248 1379.41811469 -275.45139282 1387.20322035 -267.03152847 1394.50384903 C-262.91021587 1398.13074078 -258.95512546 1401.93762167 -254.97000504 1405.71258926 C-250.97566308 1409.4806892 -246.91620782 1413.15110903 -242.76932144 1416.7506752 C-240.53413091 1418.69774755 -238.345305 1420.6930027 -236.15750504 1422.69305801 C-232.71622299 1425.80334652 -229.20679206 1428.78284113 -225.59500504 1431.69305801 C-221.58174219 1434.93758318 -217.74585119 1438.30552985 -213.97000504 1441.81805801 C-209.43875399 1446.02953282 -204.76392091 1449.99639162 -199.94656754 1453.87665176 C-196.41695976 1456.77167127 -192.97299097 1459.75568045 -189.53250504 1462.75555801 C-183.08869005 1468.3722933 -176.56397822 1473.87833712 -169.97000504 1479.31805801 C-167.40141573 1476.12279481 -165.5839688 1472.77573949 -163.72000504 1469.13055801 C-160.62955198 1463.32621971 -157.20925906 1458.32459784 -152.97000504 1453.31805801 C-152.46211441 1452.66579239 -151.95422379 1452.01352676 -151.43094254 1451.34149551 C-144.68186489 1442.99657685 -135.99313319 1436.62794715 -126.34500504 1432.06805801 C-118.90958517 1428.26555038 -115.12976899 1422.70510278 -110.33377457 1416.12030411 C-98.89471716 1401.00338292 -83.96709977 1386.80991463 -68.97000504 1375.31805801 C-68.01609879 1374.54719864 -67.06219254 1373.77633926 -66.07938004 1372.98212051 C-27.02879492 1341.87901629 26.50434082 1319.31805801 77.02999496 1319.31805801 C78.87350082 1321.57782364 78.87350082 1321.57782364 80.74483871 1324.72430801 C81.25126656 1325.56149368 81.25126656 1325.56149368 81.76792526 1326.41559219 C82.84834566 1328.20849956 83.90809207 1330.01266794 84.96749496 1331.81805801 C85.67642613 1333.00376522 86.38669894 1334.18867137 87.09835434 1335.37274551 C88.46824367 1337.65365244 89.82599089 1339.94038271 91.17794418 1342.23212051 C92.75619887 1344.8618515 94.40262179 1347.41871958 96.09640121 1349.97430801 C96.73448715 1351.07774551 97.37257309 1352.18118301 98.02999496 1353.31805801 C97.02999496 1356.31805801 97.02999496 1356.31805801 94.23629379 1357.86102676 C92.99126179 1358.41984975 91.7410448 1358.96720384 90.48702621 1359.50555801 C89.81558075 1359.80431335 89.14413528 1360.1030687 88.45234299 1360.41087723 C87.00648345 1361.05343651 85.5586076 1361.6914738 84.10897446 1362.32547379 C80.3022109 1363.99261151 76.512661 1365.69806037 72.72140121 1367.40008926 C71.96769241 1367.73756683 71.21398361 1368.0750444 70.43743515 1368.42274857 C42.6517104 1380.89443745 11.74225794 1395.53105403 -9.97000504 1417.31805801 C-11.00596131 1418.29783371 -12.04385753 1419.27556074 -13.08328629 1420.25165176 C-18.54312868 1425.44987162 -23.21379624 1430.15191514 -25.97000504 1437.31805801 C-23.34496349 1440.02264627 -20.82715868 1442.42947817 -17.84500504 1444.75555801 C-0.51335994 1459.60048881 10.04419051 1482.91033865 12.02999496 1505.31805801 C12.74307672 1517.06587186 11.63241 1527.85473714 9.02999496 1539.31805801 C8.81729965 1540.30676895 8.60460434 1541.29547989 8.38546371 1542.31415176 C7.95066694 1544.31922177 7.49393873 1546.31953102 7.02999496 1548.31805801 C35.86517336 1571.81338856 87.14871355 1575.59151543 123.02999496 1579.31805801 C122.00905746 1578.17337051 122.00905746 1578.17337051 120.96749496 1577.00555801 C120.32811996 1576.11868301 119.68874496 1575.23180801 119.02999496 1574.31805801 C119.35999496 1573.32805801 119.68999496 1572.33805801 120.02999496 1571.31805801 C120.31431049 1571.88096188 120.59862601 1572.44386575 120.89155716 1573.02382731 C123.01273663 1576.53952533 124.64816 1578.90165519 128.68191826 1580.11718988 C132.08986055 1580.45978284 135.43129633 1580.55738712 138.85667038 1580.57617569 C140.16440648 1580.61405598 141.47214259 1580.65193628 142.81950706 1580.69096446 C146.44394295 1580.79413543 150.06763429 1580.84728703 153.693205 1580.89158106 C157.60637275 1580.94759609 161.51844549 1581.04855859 165.43085861 1581.14221573 C174.88283916 1581.35722886 184.3352907 1581.49272568 193.78890243 1581.61202538 C196.46396544 1581.64608833 199.13899941 1581.68191134 201.81403232 1581.71825695 C218.46002779 1581.94326268 235.10616165 1582.13803071 251.75329304 1582.25484467 C255.60798114 1582.28235755 259.46266644 1582.31021655 263.31734848 1582.33856583 C264.75428724 1582.3490923 264.75428724 1582.3490923 266.22025507 1582.35983142 C281.69195349 1582.47813182 297.15483813 1582.77496407 312.62232912 1583.14586511 C328.5411502 1583.52441406 344.45548179 1583.73360348 360.37877315 1583.78331447 C369.30665176 1583.8154454 378.22032127 1583.92039084 387.14373589 1584.21470261 C423.2868771 1586.99468242 423.2868771 1586.99468242 455.72830963 1575.12346268 C464.57676552 1566.2724962 470.21435862 1555.39968064 475.08790475 1543.99421239 C479.40756701 1533.91191604 485.41963591 1525.23432914 491.75869894 1516.32879245 C494.81875816 1511.99129269 497.76894629 1507.5794565 500.72921371 1503.17352676 C501.39883133 1502.18186508 502.06844894 1501.1902034 502.758358 1500.16849136 C509.69227555 1489.87045561 516.51974797 1479.50243942 523.34249496 1469.13055801 C524.56489823 1467.27345584 525.78731019 1465.41635939 527.00973129 1463.55926895 C531.71469595 1456.40919155 536.41634937 1449.25699241 541.1049614 1442.09617996 C542.27763175 1440.30742515 543.45320392 1438.52062664 544.63033676 1436.73480606 C545.97340772 1434.69702697 547.31124507 1432.65578376 548.64254379 1430.61029434 C549.20739487 1429.7558876 549.77224594 1428.90148087 550.35421371 1428.02118301 C550.82947495 1427.29576309 551.30473618 1426.57034317 551.79439926 1425.82294083 C552.20214584 1425.3263295 552.60989243 1424.82971817 553.02999496 1424.31805801 C553.68999496 1424.31805801 554.34999496 1424.31805801 555.02999496 1424.31805801 C553.64755755 1428.79029336 551.88543821 1432.85433167 549.79034042 1437.03787613 C549.46603094 1437.68820395 549.14172145 1438.33853177 548.8075844 1439.0085665 C547.72584101 1441.17533322 546.63842502 1443.33920093 545.55099106 1445.50311661 C544.77203706 1447.06046017 543.9934358 1448.61798021 543.21516037 1450.17566299 C541.10528845 1454.39598008 538.9904964 1458.6138143 536.87480879 1462.83121824 C534.66314474 1467.24203437 532.45601876 1471.65512006 530.24840927 1476.06796646 C526.06905597 1484.42045968 521.88562863 1492.7709054 517.70073187 1501.12062228 C512.04467008 1512.40619999 506.39491072 1523.69493179 500.74479675 1534.98348808 C491.84501101 1552.76426 482.93681526 1570.5408048 474.02999496 1588.31805801 C532.43999496 1588.81305801 532.43999496 1588.81305801 592.02999496 1589.31805801 C590.81266391 1592.97005117 589.53171381 1593.76625236 586.52999496 1596.13055801 C585.53354965 1596.92462051 584.53710434 1597.71868301 583.51046371 1598.53680801 C582.67780991 1599.19809708 582.67780991 1599.19809708 581.82833481 1599.87274551 C579.89422565 1601.42717481 577.98581562 1603.00939829 576.08077621 1604.59930801 C567.29244714 1611.93044628 558.35642405 1618.9821005 549.1383934 1625.76434708 C546.92232447 1627.39740204 544.71406457 1629.04063864 542.50655746 1630.68524551 C525.73997705 1643.14845017 508.70914159 1655.18073629 491.02999496 1666.31805801 C490.24076645 1666.81628067 489.45153793 1667.31450333 488.6383934 1667.82782364 C467.82182232 1680.93304244 446.58252824 1693.24397775 424.870327 1704.80389786 C422.18836395 1706.23363267 419.51314255 1707.67530734 416.83858871 1709.11883926 C355.62907845 1741.93011424 289.21932508 1765.32948536 222.02999496 1782.31805801 C220.98195694 1782.58329269 220.98195694 1782.58329269 219.91274643 1782.85388565 C178.48155462 1793.29628198 136.14374974 1800.22525393 93.65499496 1804.56805801 C92.54805786 1804.68375641 92.54805786 1804.68375641 91.41875839 1804.80179214 C63.0462165 1807.72403459 34.56729269 1808.70698308 6.05998993 1808.63611603 C3.72842718 1808.63043231 1.39687184 1808.6276388 -0.9346962 1808.62503433 C-27.36312796 1808.58225306 -53.64614635 1807.8265605 -79.97000504 1805.31805801 C-80.86370804 1805.23320145 -81.75741104 1805.14834488 -82.67819595 1805.0609169 C-166.38247924 1796.99734249 -249.63840712 1778.04537341 -428.0725441 1699.93085098 C-431.20290251 1698.18842196 -434.3469929 1696.47265407 -437.49344254 1694.75946426 C-494.54051986 1663.58890519 -548.61542335 1625.01052681 -596.75516129 1581.31805801 C-598.74413005 1579.52202272 -600.75563698 1577.75852498 -602.78250504 1576.00555801 C-615.0408456 1565.27550925 -626.58106445 1553.86403319 -638.08328629 1542.33514786 C-640.85688866 1539.55615128 -643.63584185 1536.78258519 -646.41531754 1534.00946426 C-648.20209684 1532.22202465 -649.98856619 1530.43427511 -651.77469254 1528.64618301 C-652.59460678 1527.828293 -653.41452103 1527.01040298 -654.25928116 1526.16772842 C-658.49501333 1521.91484266 -662.58321719 1517.59186968 -666.49118423 1513.03499222 C-668.70843341 1510.46073106 -671.02931601 1507.99162056 -673.34500504 1505.50555801 C-677.61840474 1500.88024848 -681.65884233 1496.117239 -685.60672379 1491.20868301 C-687.76315083 1488.57106977 -689.97189407 1485.99562498 -692.20999527 1483.4279213 C-698.31705094 1476.41147222 -704.01949992 1469.15134543 -709.62234879 1461.72821426 C-711.85432321 1458.77299365 -714.11638179 1455.84567091 -716.41141129 1452.93915176 C-748.9185421 1411.76983204 -776.79352864 1366.42545654 -800.6897316 1319.78436661 C-801.82509145 1317.59721839 -802.98974227 1315.43217161 -804.18094254 1313.27508926 C-828.41102862 1269.27702468 -845.60142001 1220.96782744 -860.97000504 1173.31805801 C-861.37605972 1172.06218887 -861.78211441 1170.80631973 -862.20047379 1169.51239395 C-880.29401608 1112.9623552 -891.17742919 1053.94573543 -897.22000504 994.94305801 C-897.29722794 994.20464676 -897.37445084 993.4662355 -897.45401382 992.70544815 C-900.37601655 964.33335901 -901.35892892 935.85488061 -901.28806305 907.34805298 C-901.28237933 905.01649023 -901.27958582 902.68493489 -901.27698135 900.35336685 C-901.23420008 873.92493509 -900.47850752 847.6419167 -897.97000504 821.31805801 C-897.84272018 819.97750351 -897.84272018 819.97750351 -897.71286392 818.6098671 C-889.64928952 734.90558381 -870.69732043 651.64965592 -792.582798 473.21551895 C-790.84036898 470.08516054 -789.12460109 466.94107015 -787.41141129 463.79462051 C-756.24085221 406.74754319 -717.66247383 352.6726397 -673.97000504 304.53290176 C-672.17396975 302.543933 -670.410472 300.53242607 -668.65750504 298.50555801 C-657.92745627 286.24721744 -646.51598021 274.7069986 -634.98709488 263.20477676 C-632.2080983 260.43117439 -629.43453221 257.6522212 -626.66141129 254.87274551 C-624.87397167 253.08596621 -623.08622214 251.29949686 -621.29813004 249.51337051 C-620.48024002 248.69345627 -619.66235001 247.87354202 -618.81967545 247.02878189 C-614.56678968 242.79304972 -610.24381671 238.70484586 -605.68693924 234.79687881 C-603.11267808 232.57962964 -600.64356758 230.25874704 -598.15750504 227.94305801 C-593.53219551 223.6696583 -588.76918602 219.62922072 -583.86063004 215.68133926 C-581.22301679 213.52491222 -578.647572 211.31616898 -576.07986832 209.07806778 C-569.06341924 202.97101211 -561.80329245 197.26856313 -554.38016129 191.66571426 C-550.677388 188.86913954 -547.02761911 186.01098115 -543.38602066 183.13544083 C-533.1943446 175.10983089 -522.69672738 167.60983846 -511.97000504 160.31805801 C-511.42348282 159.94640518 -510.8769606 159.57475235 -510.31387711 159.19183731 C-484.55395594 141.69036624 -458.32101952 125.24578037 -430.97000504 110.31805801 C-429.85367691 109.70575333 -428.73734879 109.09344864 -427.58719254 108.46258926 C-388.15663669 86.87814278 -347.20714799 68.67201218 -304.97000504 53.31805801 C-304.27620743 53.06538162 -303.58240982 52.81270523 -302.86758804 52.55237198 C-233.50706102 27.35871917 -160.9583581 11.58133783 -87.59500504 4.06805801 C-86.85659378 3.99083511 -86.11818253 3.91361221 -85.35739517 3.83404922 C-56.98530603 0.9120465 -28.50682763 -0.07086588 0 0 Z " fill="#242021" transform="translate(2496.9700050354004,1095.681941986084)"/>
<path d="M0 0 C1.38280264 -0.00702411 2.76560496 -0.01411091 4.14840698 -0.02125549 C8.54295318 -0.04064938 12.93744657 -0.04568972 17.33203125 -0.046875 C18.45571169 -0.04753778 18.45571169 -0.04753778 19.60209274 -0.04821396 C42.56406362 -0.05531533 65.34130471 0.20489909 88.14453125 3.203125 C88.88129089 3.2997644 89.61805054 3.39640381 90.37713623 3.49597168 C99.79363026 4.7441764 109.19264959 6.09962895 118.56640625 7.63720703 C120.90409144 8.00693644 123.24834108 8.33782351 125.59765625 8.62451172 C133.41368128 9.64559914 133.41368128 9.64559914 137.109375 12.46484375 C137.78097656 13.36847656 138.45257812 14.27210937 139.14453125 15.203125 C139.88832031 16.11707031 140.63210938 17.03101563 141.3984375 17.97265625 C142.54119141 19.47892578 142.54119141 19.47892578 143.70703125 21.015625 C144.13483887 21.57765625 144.56264648 22.1396875 145.00341797 22.71875 C148.78262461 27.69418373 152.52384232 32.69860373 156.2644043 37.703125 C160.47901087 43.33586017 164.74644109 48.92718754 169.01953125 54.515625 C174.71223591 61.96563697 180.31473973 69.47447015 185.85498047 77.03833008 C190.87660895 83.87793856 196.01972025 90.62078933 201.17700195 97.35839844 C205.62414127 103.17889528 210.002345 109.04482534 214.33203125 114.953125 C219.20761089 121.60538149 224.160538 128.18966511 229.18701172 134.72851562 C233.31766069 140.10669272 237.39583778 145.52234872 241.45703125 150.953125 C246.66783494 157.92107584 251.92149613 164.85421262 257.20703125 171.765625 C262.83788286 179.13233365 268.37673339 186.559159 273.85571289 194.03930664 C278.87767477 200.87943036 284.02071781 207.62312629 289.17919922 214.3605957 C293.6087647 220.15693429 297.96268682 226.00266426 302.26953125 231.890625 C306.79568495 238.07568571 311.41503778 244.17216547 316.14453125 250.203125 C321.47899365 257.00552933 326.65046939 263.90972286 331.75390625 270.88671875 C336.14684292 276.88063678 340.62693931 282.80271844 345.14453125 288.703125 C350.21116102 295.32250993 355.21879475 301.97822211 360.14453125 308.703125 C365.78172154 316.39760749 371.53094922 324.00061656 377.32421875 331.578125 C381.77351405 337.39842408 386.18645925 343.24384383 390.57128906 349.11279297 C394.68390026 354.60868687 398.85043649 360.06251247 403.01953125 365.515625 C408.70836403 372.96066941 414.30688486 380.46460812 419.84399414 388.02294922 C426.25512033 396.75388481 432.84819874 405.34485662 439.42626953 413.95019531 C443.03131188 418.67701128 446.58688862 423.44057666 450.14453125 428.203125 C452.0810155 430.78722038 454.0190373 433.37016173 455.95703125 435.953125 C458.97920709 439.98110083 462.00067491 444.00958032 465.015625 448.04296875 C470.64256816 455.56570725 476.31440108 463.05198037 482.01953125 470.515625 C487.71051487 477.96364253 493.31098719 485.47067749 498.85058594 493.03173828 C503.92578437 499.9429221 509.1151244 506.76366878 514.32202148 513.57592773 C520.31302253 521.4145596 526.23747012 529.30115965 532.14453125 537.203125 C539.78791009 547.42480927 547.45480225 557.62615117 555.20703125 567.765625 C560.83395802 575.12740786 566.36888413 582.54929078 571.84472656 590.02392578 C578.25557427 598.75456005 584.84844656 607.34518082 591.42626953 615.95019531 C595.03130317 620.67699986 598.58798103 625.43977408 602.14453125 630.203125 C603.99726635 632.6833651 605.85167944 635.16234179 607.70703125 637.640625 C608.1956665 638.29417969 608.68430176 638.94773437 609.18774414 639.62109375 C612.24297748 643.69796154 615.3275283 647.75076493 618.43359375 651.7890625 C619.16247803 652.7385376 619.8913623 653.6880127 620.64233398 654.66625977 C622.08367828 656.54182329 623.52841742 658.41478361 624.97680664 660.28491211 C625.63414795 661.14093018 626.29148926 661.99694824 626.96875 662.87890625 C627.55744873 663.64114502 628.14614746 664.40338379 628.75268555 665.1887207 C630.14453125 667.203125 630.14453125 667.203125 631.14453125 670.203125 C630.28178589 670.22499878 630.28178589 670.22499878 629.40161133 670.24731445 C534.45568784 672.88444237 442.44840362 704.53713692 368.14453125 764.203125 C367.16097656 764.986875 366.17742188 765.770625 365.1640625 766.578125 C362.46601168 768.75836809 359.80411662 770.97612956 357.14453125 773.203125 C356.64633377 773.61761902 356.14813629 774.03211304 355.63484192 774.45916748 C346.89575026 781.74671752 338.63659442 789.39315942 330.61987305 797.46704102 C328.8223732 799.27534108 327.01430809 801.07258477 325.20507812 802.86914062 C318.39180621 809.6746268 312.11286574 816.63665533 306.14453125 824.203125 C305.24607182 825.27759448 304.34232417 826.34770234 303.4296875 827.41015625 C297.20517688 834.7067267 291.61616236 842.33328961 286.14453125 850.203125 C282.73817789 846.92139432 279.80569078 843.58467638 277.01953125 839.765625 C273.72919747 835.31527239 270.38800491 830.92082156 266.95703125 826.578125 C262.66257926 821.13792605 258.39548847 815.67738757 254.14453125 810.203125 C247.71627991 801.92901732 241.25183451 793.68407928 234.76660156 785.45458984 C229.44228883 778.69766812 224.14619542 771.921929 218.91162109 765.09521484 C214.04383446 758.75501382 209.09196957 752.48121736 204.14453125 746.203125 C197.51273839 737.78322952 190.91202944 729.34003151 184.33666992 720.87597656 C180.78614231 716.30761485 177.22384594 711.74896087 173.64453125 707.203125 C168.84959654 701.11341564 164.09094426 694.99591583 159.3359375 688.875 C155.78562633 684.30698476 152.22353315 679.7486896 148.64453125 675.203125 C141.49856658 666.12528392 134.4202839 656.99476776 127.33300781 647.87109375 C121.45295494 640.302394 115.57273949 632.73420179 109.64453125 625.203125 C102.49868703 616.12518789 95.42028481 606.99476894 88.33300781 597.87109375 C80.6323154 587.95889909 72.9101204 578.06455717 65.14453125 568.203125 C56.16097058 556.79500484 47.24083382 545.33841909 38.33300781 533.87109375 C30.6323154 523.95889909 22.9101204 514.06455717 15.14453125 504.203125 C6.16097058 492.79500484 -2.75916618 481.33841909 -11.66699219 469.87109375 C-17.98251098 461.74187 -24.3044001 453.61830987 -30.67260742 445.53027344 C-35.02617474 439.99644093 -39.34449899 434.43538845 -43.6640625 428.875 C-47.21437367 424.30698476 -50.77646685 419.7486896 -54.35546875 415.203125 C-61.50143342 406.12528392 -68.5797161 396.99476776 -75.66699219 387.87109375 C-81.98251098 379.74187 -88.3044001 371.61830987 -94.67260742 363.53027344 C-98.41856906 358.76877033 -102.13872683 353.98745774 -105.85546875 349.203125 C-111.82861459 341.51515786 -117.83227273 333.85191222 -123.85546875 326.203125 C-131.62559133 316.33593588 -139.35208083 306.43566757 -147.05712891 296.51757812 C-149.98846236 292.74496868 -152.92203218 288.97409922 -155.85546875 285.203125 C-159.39178024 280.65714654 -162.92754718 276.11074952 -166.4609375 271.5625 C-173.56443561 262.42047255 -180.69282995 253.29887746 -187.85546875 244.203125 C-196.83902942 232.79500484 -205.75916618 221.33841909 -214.66699219 209.87109375 C-222.3676846 199.95889909 -230.0898796 190.06455717 -237.85546875 180.203125 C-244.48351527 171.7862451 -251.08263207 163.34777171 -257.65454102 154.88696289 C-261.28957312 150.20935948 -264.93951409 145.54402228 -268.60546875 140.890625 C-272.96180424 135.35941347 -277.26547872 129.78947804 -281.55078125 124.203125 C-284.63444187 120.18913965 -287.74146158 116.19359115 -290.85546875 112.203125 C-289.23212491 107.88461414 -285.93102236 105.17042425 -282.60546875 102.140625 C-281.98140137 101.56771729 -281.35733398 100.99480957 -280.71435547 100.40454102 C-274.93156113 95.15966415 -268.89876106 90.30134488 -262.67822266 85.58886719 C-260.80354507 84.1636502 -258.94445806 82.71964201 -257.0859375 81.2734375 C-241.64923154 69.36007426 -225.06916906 59.32585433 -207.85546875 50.203125 C-207.04867676 49.77177246 -206.24188477 49.34041992 -205.41064453 48.89599609 C-175.13218866 32.8268834 -142.7804424 21.69553851 -109.47265625 13.83056641 C-107.20661203 13.28730767 -104.95237812 12.71499717 -102.69921875 12.12109375 C-69.61145155 3.68102305 -34.06021949 0.1175326 0 0 Z " fill="#FEFEFE" transform="translate(2706.85546875,1482.796875)"/>
<path d="M0 0 C1.2292923 0.00027191 2.45858459 0.00054382 3.72512817 0.00082397 C22.42267038 0.01980594 40.94418461 0.3734668 59.5625 2.1875 C61.0789209 2.32430176 61.0789209 2.32430176 62.62597656 2.46386719 C112.90845347 7.11813998 164.06622773 20.0872102 209.5625 42.1875 C210.43632324 42.60467285 211.31014648 43.0218457 212.21044922 43.45166016 C231.00703585 52.44509879 248.90192272 62.64521075 265.5625 75.1875 C266.09891113 75.58646484 266.63532227 75.98542969 267.18798828 76.39648438 C287.89664954 91.82086655 307.27643333 109.28138441 322.5625 130.1875 C324.49456822 132.79572421 326.43415268 135.39830427 328.375 138 C328.87 138.66612305 329.365 139.33224609 329.875 140.01855469 C334.16480793 145.75204798 338.69645612 151.26174683 343.28051758 156.76098633 C347.33592306 161.64495743 351.23675956 166.62208205 355.0625 171.6875 C360.12648622 178.39004026 365.3831216 184.9043134 370.74731445 191.3684082 C374.17239351 195.49596861 377.54312677 199.65050356 380.80859375 203.90625 C383.12075671 206.91360672 385.46671289 209.89383645 387.8125 212.875 C390.63211657 216.45873507 393.45122382 220.04276595 396.2578125 223.63671875 C401.13162264 229.87138639 406.06054726 236.0550294 411.0625 242.1875 C417.44383442 250.01111366 423.68448695 257.93821535 429.89648438 265.89648438 C435.23941211 272.73699185 440.63425878 279.52733087 446.125 286.25 C450.85085664 292.03617154 455.43917911 297.90236481 459.96875 303.84375 C462.92461063 307.68636881 465.99357807 311.4350131 469.0625 315.1875 C473.81105577 320.99373873 478.42103224 326.87856177 482.96875 332.84375 C485.92461063 336.68636881 488.99357807 340.4350131 492.0625 344.1875 C495.97155125 348.9672448 499.81882024 353.77695901 503.5625 358.6875 C507.91333883 364.39398356 512.41462409 369.96463206 516.95263672 375.52294922 C520.27913488 379.59985955 523.56201111 383.70256738 526.7734375 387.87109375 C529.57232417 391.49497977 532.40802217 395.08984234 535.23925781 398.68847656 C537.58306902 401.66789759 539.92462124 404.6489709 542.2578125 407.63671875 C547.13162264 413.87138639 552.06054726 420.0550294 557.0625 426.1875 C563.44383442 434.01111366 569.68448695 441.93821535 575.89648438 449.89648438 C581.23941211 456.73699185 586.63425878 463.52733087 592.125 470.25 C596.85085664 476.03617154 601.43917911 481.90236481 605.96875 487.84375 C608.92461063 491.68636881 611.99357807 495.4350131 615.0625 499.1875 C619.81105577 504.99373873 624.42103224 510.87856177 628.96875 516.84375 C631.92461063 520.68636881 634.99357807 524.4350131 638.0625 528.1875 C642.81105577 533.99373873 647.42103224 539.87856177 651.96875 545.84375 C654.92461063 549.68636881 657.99357807 553.4350131 661.0625 557.1875 C665.81105577 562.99373873 670.42103224 568.87856177 674.96875 574.84375 C677.92461063 578.68636881 680.99357807 582.4350131 684.0625 586.1875 C688.81105577 591.99373873 693.42103224 597.87856177 697.96875 603.84375 C700.92461063 607.68636881 703.99357807 611.4350131 707.0625 615.1875 C711.81518786 620.99879119 716.42901993 626.88881532 720.98046875 632.859375 C723.86897402 636.61454455 726.87245713 640.27335728 729.875 643.9375 C734.36400514 649.41805511 738.72624332 654.97514692 743 660.625 C747.94841513 667.16309629 753.08536788 673.51177476 758.33178711 679.81225586 C762.36780469 684.68041895 766.25074672 689.64227658 770.0625 694.6875 C775.05768344 701.29892923 780.24386141 707.72009567 785.54077148 714.09155273 C789.82453994 719.25588356 793.93076634 724.5217752 797.9921875 729.86328125 C800.99873209 733.78563986 804.12463695 737.60962878 807.25 741.4375 C811.14666322 746.21014428 815.0155131 750.99478726 818.77734375 755.875 C825.44987203 764.51862526 832.24907902 773.06259788 839.08081055 781.58056641 C842.89091721 786.33566806 846.66062534 791.12112976 850.41796875 795.91796875 C854.27325701 800.83373745 858.17483438 805.71144124 862.08422852 810.58422852 C865.41727108 814.74313869 868.71742348 818.92618914 872 823.125 C875.98179668 828.21658432 880.03564932 833.24447232 884.125 838.25 C888.9783512 844.19078841 893.70813199 850.2082819 898.34375 856.3203125 C899.51872247 857.83867481 900.70777404 859.34978901 901.98828125 860.78027344 C903.24855995 862.19070931 904.41368519 863.68488353 905.5625 865.1875 C905.2325 866.1775 904.9025 867.1675 904.5625 868.1875 C899.73789868 867.62680309 895.2257081 866.61929751 890.54833984 865.3215332 C867.05324191 858.8030378 842.77565524 854.05031627 818.5625 851.1875 C817.39871826 851.04320557 817.39871826 851.04320557 816.21142578 850.89599609 C731.60006477 840.49654148 644.2960955 854.59462224 567.32177734 890.89257812 C564.40495056 892.26143755 561.48068128 893.61247815 558.55078125 894.953125 C557.66559814 895.35821289 556.78041504 895.76330078 555.8684082 896.18066406 C549.59572587 898.91952504 542.69053219 899.31274242 536.0546875 897.50390625 C533.77034896 896.54480244 531.69291479 895.45056017 529.5625 894.1875 C528.54736328 893.63835937 528.54736328 893.63835937 527.51171875 893.078125 C520.43536485 888.62620527 517.25226331 881.38150779 513.5625 874.1875 C513.08651367 873.28418945 512.61052734 872.38087891 512.12011719 871.45019531 C504.95353095 857.83681097 498.6572552 844.12770352 493.34057617 829.70263672 C487.15046446 813.13001393 476.64353103 800.90571647 464.23388672 788.59814453 C462.68870622 787.06369784 461.15453991 785.51881998 459.62109375 783.97265625 C453.98721623 778.33157918 448.19885431 773.0992142 441.96044922 768.11767578 C439.02938267 765.75837909 436.30113667 763.2669136 433.5625 760.6875 C429.03226872 756.46967312 424.34983713 752.50504114 419.53125 748.62109375 C415.39151496 745.22760042 411.3608529 741.71433129 407.32543945 738.19799805 C403.63067338 734.97880055 399.91902211 731.78201914 396.18359375 728.61010742 C355.94743746 694.3879963 339.73749949 654.11526973 324.18896484 604.49829102 C321.56969852 596.15799561 318.88264076 587.83962451 316.19100952 579.52246094 C315.65144499 577.85455091 315.11255413 576.18642279 314.57437134 574.51806641 C313.80798299 572.14293797 313.0390775 569.76863814 312.26953125 567.39453125 C312.0415686 566.68678055 311.81360596 565.97902985 311.57873535 565.24983215 C310.03779456 560.50907849 308.3506358 555.84033722 306.5625 551.1875 C306.32081589 550.55680099 306.07913177 549.92610199 305.8301239 549.27629089 C295.61270311 522.57715815 295.61270311 522.57715815 282.5625 497.1875 C282.20994141 496.57342285 281.85738281 495.9593457 281.49414062 495.32666016 C272.30472177 479.37448417 262.18316581 466.78383733 244.5625 460.1875 C234.56805654 457.58642244 224.17760782 458.82221226 214.5625 462.1875 C213.73234375 462.45433594 212.9021875 462.72117187 212.046875 462.99609375 C201.56679475 466.70366931 193.36045458 473.52140523 186.5625 482.1875 C185.83933594 483.09113281 185.11617187 483.99476563 184.37109375 484.92578125 C183.77425781 485.67214844 183.17742188 486.41851563 182.5625 487.1875 C180.90948491 484.77547799 179.26500054 482.35834663 177.625 479.9375 C177.15642578 479.25558594 176.68785156 478.57367187 176.20507812 477.87109375 C175.75712891 477.20722656 175.30917969 476.54335937 174.84765625 475.859375 C174.43394775 475.2519043 174.02023926 474.64443359 173.59399414 474.01855469 C172.49833094 472.07359043 172.0858627 470.34709876 171.5625 468.1875 C170.67371951 466.39684339 170.67371951 466.39684339 169.55078125 464.6328125 C168.91982544 463.60462402 168.91982544 463.60462402 168.27612305 462.55566406 C167.81375244 461.81541992 167.35138184 461.07517578 166.875 460.3125 C166.38878174 459.52584961 165.90256348 458.73919922 165.40161133 457.92871094 C159.80821746 448.91091607 154.09473679 439.96847596 148.37841797 431.02832031 C145.35143219 426.29290669 142.33118578 421.55320787 139.3125 416.8125 C138.72637939 415.89202881 138.14025879 414.97155762 137.53637695 414.02319336 C133.74189882 408.05784362 129.97644025 402.07532726 126.23803711 396.07470703 C123.13739086 391.0993246 120.00988896 386.14136679 116.875 381.1875 C112.24561704 373.86982094 107.64771469 366.53292775 103.0625 359.1875 C94.29483295 345.14548125 85.45408792 331.15134018 76.5625 317.1875 C67.01943954 302.20055141 57.54502813 287.172629 48.13574219 272.10131836 C42.3111941 262.77562278 36.44329255 253.47779482 30.5625 244.1875 C23.38448902 232.84789948 16.24343264 221.48618526 9.13623047 210.10205078 C3.78809647 201.53928127 -1.59542564 192.9993816 -6.99462891 184.46875 C-8.44998433 182.16776167 -9.90309118 179.86536895 -11.35546875 177.5625 C-16.05481868 170.11238707 -20.76457402 162.6693013 -25.50097656 155.24267578 C-31.70745191 145.51018778 -37.85585619 135.74336768 -43.96533203 125.94970703 C-49.7534255 116.67277577 -55.5891594 107.42652822 -61.4375 98.1875 C-67.96698442 87.87242177 -74.47234569 77.54305191 -80.9375 67.1875 C-85.44403281 59.97009509 -89.95698522 52.75700843 -94.5 45.5625 C-94.97099121 44.81597168 -95.44198242 44.06944336 -95.92724609 43.30029297 C-98.67405245 38.95389225 -101.4412281 34.62120858 -104.22265625 30.296875 C-104.86130615 29.30123535 -105.49995605 28.3055957 -106.15795898 27.27978516 C-107.39991059 25.34481787 -108.64535386 23.41208592 -109.89477539 21.48193359 C-110.73963501 20.16443115 -110.73963501 20.16443115 -111.6015625 18.8203125 C-112.10123535 18.04574707 -112.6009082 17.27118164 -113.11572266 16.47314453 C-114.48264871 14.10942793 -115.48610171 11.74357125 -116.4375 9.1875 C-101.9285881 6.66809535 -87.37852142 5.00281611 -72.72998047 3.52392578 C-69.07682407 3.15064612 -65.42683986 2.75303708 -61.77758789 2.34350586 C-41.22912807 0.21678369 -20.64317327 -0.01725479 0 0 Z " fill="#FEFEFE" transform="translate(2070.4375,1464.8125)"/>
<path d="M0 0 C12.01695494 10.23412568 21.30055079 25.06386188 23.375 40.875 C23.59037747 44.27199317 23.6656032 47.65911229 23.6875 51.0625 C23.69595947 52.30966797 23.69595947 52.30966797 23.70458984 53.58203125 C23.50466511 70.66034758 16.34036432 86.8155126 4.625 99.125 C-11.28668851 114.29157923 -29.29669757 118.52069765 -50.58203125 118.19140625 C-57.2754889 117.94683564 -62.57564623 116.8606488 -68.625 113.875 C-69.48609375 113.50117188 -70.3471875 113.12734375 -71.234375 112.7421875 C-77.37611091 109.93187804 -82.53627397 106.29179918 -87.625 101.875 C-88.3778125 101.22917969 -89.130625 100.58335937 -89.90625 99.91796875 C-101.11201219 89.57566426 -108.63394395 74.52116315 -109.82666016 59.30175781 C-110.60555418 39.06586089 -106.68231322 22.02593485 -93.0546875 6.40234375 C-67.47857785 -20.20174458 -28.99274774 -22.18505835 0 0 Z " fill="#FEFEFE" transform="translate(2458.625,2558.125)"/>
<path d="M0 0 C3.62499626 3.27818569 6.0578625 7.04026289 8.5625 11.1875 C9.45320874 12.63746788 10.34517693 14.08666269 11.23828125 15.53515625 C11.92398193 16.64914795 11.92398193 16.64914795 12.62353516 17.78564453 C14.78506059 21.26294778 17.01560978 24.69423045 19.25 28.125 C25.90937794 38.36813957 32.45285493 48.68490027 39 59 C38.01 59.495 38.01 59.495 37 60 C36.60321045 59.41734375 36.2064209 58.8346875 35.79760742 58.234375 C26.04601069 43.91449978 26.04601069 43.91449978 16.25 29.625 C15.81840576 28.99746826 15.38681152 28.36993652 14.94213867 27.72338867 C12.62666366 24.35854437 10.3069153 20.99669005 7.984375 17.63671875 C7.48518555 16.91339355 6.98599609 16.19006836 6.47167969 15.44482422 C5.52049827 14.0666526 4.56810739 12.68931458 3.61425781 11.31298828 C1.28690596 7.93893917 -0.93854859 4.54651016 -3 1 C-2.01 0.67 -1.02 0.34 0 0 Z " fill="#767475" transform="translate(2200,1993)"/>
<path d="M0 0 C2.10242402 1.99563663 3.75538207 3.97203605 5.3125 6.4140625 C5.74240234 7.08373047 6.17230469 7.75339844 6.61523438 8.44335938 C7.07220703 9.16330078 7.52917969 9.88324219 8 10.625 C8.98948384 12.16933459 9.97906999 13.71360362 10.96875 15.2578125 C11.47277344 16.04704102 11.97679688 16.83626953 12.49609375 17.64941406 C14.81619545 21.27570289 17.15875285 24.88734433 19.5 28.5 C20.40626796 29.90233214 21.31251786 31.30467596 22.21875 32.70703125 C24.14777689 35.68919142 26.0867426 38.6646312 28.03125 41.63671875 C28.52818359 42.39855469 29.02511719 43.16039062 29.53710938 43.9453125 C30.48374007 45.39622309 31.43280071 46.84555242 32.38476562 48.29296875 C34.85922766 52.09184299 37.05756553 55.89149551 39 60 C38.34 60 37.68 60 37 60 C35.6171875 58.18359375 35.6171875 58.18359375 33.875 55.4375 C29.85077159 49.24470004 25.66981253 43.17738421 21.4375 37.125 C15.77283099 29.00602056 10.14338929 20.86432482 4.5625 12.6875 C3.59558228 11.27331787 3.59558228 11.27331787 2.60913086 9.83056641 C1.72173218 8.52804932 1.72173218 8.52804932 0.81640625 7.19921875 C0.29506104 6.43440186 -0.22628418 5.66958496 -0.76342773 4.8815918 C-2 3 -2 3 -3 1 C-2.01 0.67 -1.02 0.34 0 0 Z " fill="#757373" transform="translate(2200,1928)"/>
<path d="M0 0 C3.25747811 3.1185072 5.94458136 6.14353663 8.375 9.9375 C12.28131351 15.92619613 16.27921632 21.84601069 20.3125 27.75 C20.96420166 28.70519531 21.61590332 29.66039062 22.28735352 30.64453125 C26.11521222 36.25180381 29.95825045 41.84834886 33.8125 47.4375 C38.95961492 54.90225438 43.99305419 62.44070654 49 70 C48.01 70.33 47.02 70.66 46 71 C44.84635417 69.26953125 43.69270833 67.5390625 42.5390625 65.80859375 C42.16532501 65.24807816 41.79158752 64.68756256 41.40652466 64.11006165 C39.26393657 60.89656079 37.12209625 57.68256509 34.98144531 54.46777344 C30.23174612 47.33660508 25.47386192 40.21112596 20.69747925 33.09779358 C18.3017933 29.52900191 15.90962145 25.95786164 13.51776123 22.38650513 C12.3378048 20.62667403 11.1561998 18.86794718 9.97296143 17.11032104 C8.30591814 14.63361362 6.64456155 12.15318188 4.984375 9.671875 C4.47907257 8.92424393 3.97377014 8.17661285 3.45315552 7.40632629 C0 2.22773531 0 2.22773531 0 0 Z " fill="#D3D2D2" transform="translate(1907,1572)"/>
<path d="M0 0 C3.10432132 3.76195658 5.87960977 7.68251403 8.5625 11.75 C8.99159668 12.39686768 9.42069336 13.04373535 9.86279297 13.71020508 C13.62154838 19.39177632 17.32339228 25.11006282 21.00927734 30.83911133 C24.46917176 36.21007328 28.02105476 41.50963288 31.63671875 46.77734375 C33 49 33 49 33 51 C29.58260387 49.58740881 28.048154 48.06541039 26.02319336 44.99682617 C25.4725975 44.17224411 24.92200165 43.34766205 24.35472107 42.49809265 C23.77231155 41.60540176 23.18990204 40.71271088 22.58984375 39.79296875 C21.67677208 38.41665031 21.67677208 38.41665031 20.74525452 37.01252747 C18.80062219 34.07650601 16.86909668 31.13210969 14.9375 28.1875 C13.6329854 26.21494964 12.32765615 24.24293778 11.02148438 22.27148438 C0.86200635 6.90836927 0.86200635 6.90836927 -2 2 C-1.34 2 -0.68 2 0 2 C0 1.34 0 0.68 0 0 Z " fill="#777576" transform="translate(2225,2090)"/>
<path d="M0 0 C3.94922093 4.68848396 7.25251533 9.76782038 10.625 14.875 C11.86961997 16.75401999 13.11441294 18.6329254 14.359375 20.51171875 C14.97232422 21.43774902 15.58527344 22.3637793 16.21679688 23.31787109 C17.84607607 25.76848189 19.4888897 28.20902091 21.140625 30.64453125 C21.83937744 31.67827881 21.83937744 31.67827881 22.55224609 32.73291016 C23.41628974 34.00967897 24.28366373 35.28420206 25.15478516 36.55615234 C28 40.77625232 28 40.77625232 28 43 C24.39738886 41.54769738 22.87552918 39.80361034 20.75 36.58984375 C20.14679932 35.68959473 19.54359863 34.7893457 18.92211914 33.86181641 C18.28781982 32.89679199 17.65352051 31.93176758 17 30.9375 C15.66658453 28.94319421 14.33193221 26.94971488 12.99609375 24.95703125 C11.99618408 23.45970459 11.99618408 23.45970459 10.97607422 21.93212891 C8.0684393 17.61773609 5.0750338 13.36654827 2.0625 9.125 C1.54880859 8.40046631 1.03511719 7.67593262 0.50585938 6.92944336 C-0.66114924 5.28515088 -1.83029672 3.64237667 -3 2 C-2.01 1.34 -1.02 0.68 0 0 Z " fill="#7C7A7B" transform="translate(2193,1944)"/>
<path d="M0 0 C2.63472874 2.406981 4.38847301 5.0195445 6.2578125 8.05078125 C6.87970459 9.05351074 7.50159668 10.05624023 8.14233398 11.08935547 C8.79661377 12.15299316 9.45089355 13.21663086 10.125 14.3125 C11.4718219 16.48879781 12.8194755 18.66458115 14.16796875 20.83984375 C14.82200684 21.8954248 15.47604492 22.95100586 16.14990234 24.03857422 C19.21043904 28.93753306 22.37489627 33.76641756 25.55859375 38.5859375 C27 41 27 41 27 43 C26.34 43 25.68 43 25 43 C23.18316255 40.49295002 21.48583692 37.97633999 19.8125 35.375 C18.74090709 33.73611286 17.66792281 32.09813486 16.59375 30.4609375 C16.01882812 29.58276367 15.44390625 28.70458984 14.8515625 27.79980469 C10.91372367 21.8452773 6.85298176 15.97336599 2.8137207 10.08740234 C2.20101318 9.19230957 1.58830566 8.2972168 0.95703125 7.375 C0.41022705 6.57835937 -0.13657715 5.78171875 -0.69995117 4.9609375 C-2 3 -2 3 -3 1 C-2.01 0.67 -1.02 0.34 0 0 Z " fill="#615E5F" transform="translate(2216,1925)"/>
<path d="M0 0 C4.2345542 3.7212749 6.91278787 7.89104987 9.8671875 12.66796875 C12.35602431 16.55620647 15.00526035 20.30633103 17.6875 24.0625 C23.99323186 32.90903241 30.02239808 41.92948562 36 51 C35.01 51.33 34.02 51.66 33 52 C32.23042969 50.84564453 32.23042969 50.84564453 31.4453125 49.66796875 C31.08655029 49.12986572 30.72778809 48.5917627 30.3581543 48.03735352 C29.51571982 46.77361841 28.67344169 45.50977907 27.83129883 44.24584961 C25.11949431 40.17652122 22.40500758 36.10900471 19.68719482 32.04368591 C18.08820812 29.65153599 16.49019765 27.25873466 14.89227295 24.86587524 C14.0956983 23.6735153 13.29870819 22.48143278 12.50128174 21.28964233 C0 2.60442113 0 2.60442113 0 0 Z " fill="#D4D3D3" transform="translate(1938,1553)"/>
<path d="M0 0 C2.95964399 2.79634491 5.24253184 5.63821975 7.46875 9.04296875 C8.11690674 10.02668457 8.76506348 11.01040039 9.43286133 12.02392578 C10.11501709 13.06790527 10.79717285 14.11188477 11.5 15.1875 C16.94470098 23.4525897 22.460874 31.63934422 28.28125 39.64526367 C30.90903515 43.29564501 33.10081289 46.89876537 35 51 C32.64065542 50.62596516 31.34412638 50.38725794 29.72998047 48.57080078 C29.36275879 47.95188965 28.99553711 47.33297852 28.6171875 46.6953125 C28.18059814 45.97931885 27.74400879 45.2633252 27.29418945 44.52563477 C26.82585693 43.73342529 26.35752441 42.94121582 25.875 42.125 C22.11912608 35.95519777 18.28218648 29.86080275 14.24609375 23.87109375 C13.83872986 23.26599976 13.43136597 22.66090576 13.01165771 22.03747559 C11.37377194 19.60819176 9.73351082 17.1806171 8.08416748 14.75909424 C6.92228992 13.05230122 5.76736849 11.34097251 4.61328125 9.62890625 C3.94079346 8.63963135 3.26830566 7.65035645 2.57543945 6.63110352 C1.19261029 4.32167381 0.43707282 2.62749653 0 0 Z " fill="#DFDEDF" transform="translate(1950,1541)"/>
<path d="M0 0 C2.14546488 2.03578634 3.83545126 4.0796685 5.4519043 6.5534668 C6.14228035 7.60421638 6.14228035 7.60421638 6.84660339 8.67619324 C7.33421646 9.42629166 7.82182953 10.17639008 8.32421875 10.94921875 C8.83048294 11.72183548 9.33674713 12.49445221 9.85835266 13.29048157 C11.47145871 15.75395585 13.0795327 18.22066921 14.6875 20.6875 C15.78157076 22.36024211 16.87596799 24.03277074 17.97070312 25.70507812 C20.65092727 29.80091964 23.32664366 33.8996729 26 38 C25.34 38.66 24.68 39.32 24 40 C22.88214764 38.37403294 21.764302 36.74806125 20.64648438 35.12207031 C19.6648238 33.69426012 18.68305096 32.26652712 17.70117188 30.83886719 C15.10676514 27.06623624 12.51419662 23.29236966 9.92578125 19.515625 C9.43505127 18.80019531 8.94432129 18.08476562 8.4387207 17.34765625 C7.49776066 15.97573555 6.55746616 14.60335807 5.61791992 13.23046875 C4.97173706 12.28880859 4.97173706 12.28880859 4.3125 11.328125 C3.91329346 10.74579102 3.51408691 10.16345703 3.1027832 9.56347656 C2.16870469 8.23918194 1.17430319 6.95775584 0.16796875 5.6875 C-1 4 -1 4 -0.6875 1.75 C-0.460625 1.1725 -0.23375 0.595 0 0 Z " fill="#858384" transform="translate(2218,2046)"/>
<path d="M0 0 C3.42147296 3.15768593 5.92632803 6.67630952 8.4375 10.5625 C9.31783533 11.90441746 10.19940846 13.24552347 11.08203125 14.5859375 C11.5507666 15.2984668 12.01950195 16.01099609 12.50244141 16.74511719 C15.16611267 20.75582273 17.89825583 24.71952986 20.625 28.6875 C25.47470108 35.75412619 30.27540811 42.84888055 35 50 C34.01 50.33 33.02 50.66 32 51 C30.93616973 49.37371636 29.87237589 47.74740888 28.80859375 46.12109375 C28.11757568 45.06470703 27.42655762 44.00832031 26.71459961 42.91992188 C25.18722891 40.58453268 23.66077539 38.24854749 22.13500977 35.91210938 C18.27872092 30.00786922 14.41540841 24.10861021 10.53125 18.22265625 C9.8410376 17.17343994 9.1508252 16.12422363 8.43969727 15.04321289 C7.1208902 13.03870977 5.79854622 11.0365285 4.47241211 9.03686523 C3.88210205 8.13782471 3.29179199 7.23878418 2.68359375 6.3125 C1.90326782 5.13107422 1.90326782 5.13107422 1.10717773 3.92578125 C0 2 0 2 0 0 Z " fill="#D3D2D2" transform="translate(1889,1571)"/>
<path d="M0 0 C3.83462657 3.59750302 6.78255644 7.38300599 9.625 11.8125 C10.49626249 13.14527283 11.36870092 14.47727751 12.2421875 15.80859375 C12.91652832 16.83895752 12.91652832 16.83895752 13.60449219 17.89013672 C15.93808242 21.41828346 18.3443858 24.89573782 20.75 28.375 C24.55170089 33.88299176 28.31974611 39.40974092 32 45 C30.515 45.495 30.515 45.495 29 46 C28.41476562 45.08605469 27.82953125 44.17210937 27.2265625 43.23046875 C26.35994102 41.88244845 25.49269196 40.53483151 24.625 39.1875 C24.15473389 38.45716553 23.68446777 37.72683105 23.19995117 36.97436523 C19.93440747 31.92714992 16.61535669 26.91856731 13.26171875 21.9296875 C12.85417358 21.32250381 12.44662842 20.71532013 12.0267334 20.08973694 C9.9715018 17.02824122 7.91148207 13.97014544 5.84423828 10.91674805 C5.07955342 9.77926799 4.31505906 8.64165984 3.55078125 7.50390625 C2.86669189 6.49142822 2.18260254 5.4789502 1.4777832 4.43579102 C0 2 0 2 0 0 Z " fill="#E7E6E7" transform="translate(1906,1535)"/>
<path d="M0 0 C1.32 0 2.64 0 4 0 C5.47290039 1.65795898 5.47290039 1.65795898 6.84765625 3.99609375 C7.36561768 4.85759033 7.8835791 5.71908691 8.41723633 6.60668945 C8.96017334 7.54085693 9.50311035 8.47502441 10.0625 9.4375 C11.21194476 11.35772764 12.36301374 13.27698387 13.515625 15.1953125 C14.3828418 16.6498584 14.3828418 16.6498584 15.26757812 18.13378906 C17.85815132 22.41977121 20.57458806 26.6196327 23.3125 30.8125 C23.78631104 31.54073975 24.26012207 32.26897949 24.74829102 33.01928711 C25.83021916 34.68081237 26.91477422 36.34062671 28 38 C27.01 38 26.02 38 25 38 C23.54882812 36.32617188 23.54882812 36.32617188 22.03125 33.96875 C21.46486816 33.10217773 20.89848633 32.23560547 20.31494141 31.34277344 C19.41654541 29.93560059 19.41654541 29.93560059 18.5 28.5 C17.24850868 26.57740015 15.99589053 24.65553335 14.7421875 22.734375 C14.11666992 21.77080078 13.49115234 20.80722656 12.84667969 19.81445312 C9.72159353 15.05163012 6.46439603 10.38167361 3.20117188 5.71289062 C0 1.10300882 0 1.10300882 0 0 Z " fill="#656263" transform="translate(2216,1896)"/>
<path d="M0 0 C3.94527029 3.55446522 6.62320836 7.71171866 9.5 12.125 C10.55715007 13.72925998 11.61444634 15.33342363 12.671875 16.9375 C13.21521484 17.76507812 13.75855469 18.59265625 14.31835938 19.4453125 C17.10917879 23.68502422 19.93093759 27.90403923 22.75 32.125 C23.7657688 33.64834162 24.78140728 35.17177016 25.796875 36.6953125 C26.88742187 38.33113281 26.88742187 38.33113281 28 40 C26.515 40.495 26.515 40.495 25 41 C21.32210766 35.34054934 17.65861441 29.67192871 14 24 C13.06196533 22.54859619 13.06196533 22.54859619 12.10498047 21.06787109 C10.16927107 18.06919149 8.24019004 15.06633966 6.3125 12.0625 C5.68843262 11.09747559 5.06436523 10.13245117 4.42138672 9.13818359 C3.84533691 8.23793457 3.26928711 7.33768555 2.67578125 6.41015625 C2.15927002 5.60715088 1.64275879 4.80414551 1.1105957 3.97680664 C0 2 0 2 0 0 Z " fill="#DAD9D9" transform="translate(1877,1579)"/>
<path d="M0 0 C3.92179199 3.53445451 6.57519367 7.65141268 9.421875 12.046875 C9.92672424 12.81807678 10.43157349 13.58927856 10.95172119 14.3838501 C12.55568597 16.83630386 14.15291713 19.29306042 15.75 21.75 C16.83940164 23.41825754 17.92924059 25.0862296 19.01953125 26.75390625 C21.68476455 30.83264788 24.3439693 34.91526036 27 39 C25.515 39.495 25.515 39.495 24 40 C19.94253148 33.64030941 15.89164957 27.27647139 11.84765625 20.90820312 C10.6848619 19.07796974 9.52095867 17.24843991 8.35546875 15.41992188 C6.94089821 13.19937509 5.53203712 10.97532516 4.125 8.75 C3.70299316 8.09 3.28098633 7.43 2.84619141 6.75 C0 2.22893906 0 2.22893906 0 0 Z " fill="#D9D8D8" transform="translate(1963,1518)"/>
<path d="M0 0 C2.36270386 2.21560946 4.13639007 4.5293656 5.91796875 7.23046875 C6.44970703 8.03291016 6.98144531 8.83535156 7.52929688 9.66210938 C8.07650391 10.49548828 8.62371094 11.32886719 9.1875 12.1875 C9.74630859 13.03248047 10.30511719 13.87746094 10.88085938 14.74804688 C12.25705427 16.82998274 13.62996613 18.9140068 15 21 C14.67 21.66 14.34 22.32 14 23 C13.01 23 12.02 23 11 23 C9.37426758 21.07226562 9.37426758 21.07226562 7.64453125 18.40625 C6.71157227 16.98505859 6.71157227 16.98505859 5.75976562 15.53515625 C5.11716797 14.53355469 4.47457031 13.53195313 3.8125 12.5 C2.83120117 10.99759766 2.83120117 10.99759766 1.83007812 9.46484375 C0.21062842 6.98247558 -1.39881434 4.49417281 -3 2 C-2.01 1.34 -1.02 0.68 0 0 Z " fill="#696667" transform="translate(2210,2067)"/>
<path d="M0 0 C3.52816195 4.2589955 6.64059285 8.74632336 9.75 13.3125 C10.25660156 14.05306641 10.76320313 14.79363281 11.28515625 15.55664062 C12.52519457 17.36990421 13.76342265 19.18437521 15 21 C14 23 14 23 12 24 C6.89232922 16.39819388 1.88147497 8.74934151 -3 1 C-2.01 0.67 -1.02 0.34 0 0 Z " fill="#6A6869" transform="translate(2203,2023)"/>
<path d="M0 0 C0.66 0 1.32 0 2 0 C3.2175293 1.56958008 3.2175293 1.56958008 4.57421875 3.76953125 C5.32396973 4.97258911 5.32396973 4.97258911 6.08886719 6.19995117 C6.88019043 7.49316284 6.88019043 7.49316284 7.6875 8.8125 C8.76940902 10.55476341 9.85143981 12.29695121 10.93359375 14.0390625 C11.45808105 14.88887695 11.98256836 15.73869141 12.52294922 16.61425781 C14.4059916 19.65576032 16.32359601 22.67329089 18.25 25.6875 C18.79140625 26.53699219 19.3328125 27.38648438 19.890625 28.26171875 C20.25671875 28.83535156 20.6228125 29.40898438 21 30 C20.34 30.33 19.68 30.66 19 31 C18.55011719 30.319375 18.10023438 29.63875 17.63671875 28.9375 C14.47541496 24.17337085 11.30919645 19.42254755 8.01953125 14.74609375 C7.5191333 14.03130859 7.01873535 13.31652344 6.50317383 12.58007812 C5.51008182 11.16455506 4.51130974 9.7529981 3.5065918 8.34570312 C0 3.33398472 0 3.33398472 0 0 Z " fill="#8F8D8E" transform="translate(2218,1957)"/>
<path d="M0 0 C0.66 0 1.32 0 2 0 C3.49633789 1.97192383 3.49633789 1.97192383 5.22265625 4.70703125 C5.84333984 5.68607422 6.46402344 6.66511719 7.10351562 7.67382812 C7.74998047 8.70958984 8.39644531 9.74535156 9.0625 10.8125 C9.71283203 11.83666016 10.36316406 12.86082031 11.03320312 13.91601562 C15.85688973 21.57066918 15.85688973 21.57066918 17 25 C13.37441978 23.54612461 11.87163519 21.78586397 9.765625 18.53515625 C8.90517578 17.21161133 8.90517578 17.21161133 8.02734375 15.86132812 C7.44082031 14.93771484 6.85429687 14.01410156 6.25 13.0625 C5.64800781 12.14275391 5.04601563 11.22300781 4.42578125 10.27539062 C0 3.39585991 0 3.39585991 0 0 Z " fill="#8C8A8B" transform="translate(2241,2116)"/>
<path d="M0 0 C0.66 0 1.32 0 2 0 C0.55676531 4.73789165 -1.37226733 8.98858151 -3.625 13.375 C-3.94984375 14.01566406 -4.2746875 14.65632813 -4.609375 15.31640625 C-5.40257407 16.87947501 -6.20077031 18.44000622 -7 20 C-7.66 19.34 -8.32 18.68 -9 18 C-9.99 18.66 -10.98 19.32 -12 20 C-10.3734847 15.24059444 -7.77746363 11.33385641 -5 7.1875 C-4.32324219 6.14819336 -4.32324219 6.14819336 -3.6328125 5.08789062 C-2.47765853 3.35345087 -1.24461741 1.67140344 0 0 Z " fill="#838182" transform="translate(3050,2520)"/>
<path d="M0 0 C4.28879579 3.78913026 7.14703458 8.49904816 10.25 13.25 C10.80429688 14.09046875 11.35859375 14.9309375 11.9296875 15.796875 C13.29069425 17.86185075 14.64729288 19.92958185 16 22 C15.01 22.33 14.02 22.66 13 23 C10.81812943 19.92716919 8.65726822 16.84014096 6.5 13.75 C5.87996094 12.87730469 5.25992187 12.00460937 4.62109375 11.10546875 C4.03457031 10.26113281 3.44804688 9.41679688 2.84375 8.546875 C2.29912109 7.77182617 1.75449219 6.99677734 1.19335938 6.19824219 C0 4 0 4 0 0 Z " fill="#E6E5E6" transform="translate(1940,1620)"/>
<path d="M0 0 C0.66 0.33 1.32 0.66 2 1 C-5.59 8.59 -13.18 16.18 -21 24 C-21.66 23.67 -22.32 23.34 -23 23 C-8.1431293 6.74285575 -8.1431293 6.74285575 0 0 Z " fill="#6E6C6D" transform="translate(2638,2424)"/>
<path d="M0 0 C3.90165622 4.5929691 7.04525447 9.60054149 10.25 14.6875 C10.80429688 15.55439453 11.35859375 16.42128906 11.9296875 17.31445312 C12.45304687 18.14267578 12.97640625 18.97089844 13.515625 19.82421875 C13.99290039 20.57791748 14.47017578 21.33161621 14.96191406 22.1081543 C16 24 16 24 16 26 C15.34 26 14.68 26 14 26 C12.703125 24.39526367 12.703125 24.39526367 11.25 22.16796875 C10.7240625 21.36939453 10.198125 20.57082031 9.65625 19.74804688 C9.1096875 18.90306641 8.563125 18.05808594 8 17.1875 C7.4534375 16.35412109 6.906875 15.52074219 6.34375 14.66210938 C5.32499543 13.10775958 4.30908494 11.55153956 3.296875 9.99291992 C2.20908016 8.32129544 1.10629333 6.65943999 0 5 C-0.125 2.3125 -0.125 2.3125 0 0 Z " fill="#888687" transform="translate(2227,1942)"/>
<path d="M0 0 C3.80267636 3.38015677 6.81105028 7.40679404 9 12 C9 13.32 9 14.64 9 16 C4.9255567 14.64185223 3.57978049 11.8691574 1.3125 8.4375 C0.68891602 7.51420898 0.68891602 7.51420898 0.05273438 6.57226562 C-0.97193162 5.05293329 -1.98690678 3.52707343 -3 2 C-2.01 1.34 -1.02 0.68 0 0 Z " fill="#737071" transform="translate(2200,1993)"/>
<path d="M0 0 C4.17781634 3.87671246 7.22712043 8.03587533 10.3125 12.8125 C10.76689453 13.50537109 11.22128906 14.19824219 11.68945312 14.91210938 C12.79831476 16.6045824 13.89991438 18.30180958 15 20 C14.01 20.33 13.02 20.66 12 21 C0 3 0 3 0 0 Z " fill="#E6E6E6" transform="translate(1959,1584)"/>
<path d="M0 0 C2.08308624 1.97827687 3.72637837 3.93007597 5.26171875 6.35546875 C5.85629883 7.28842773 5.85629883 7.28842773 6.46289062 8.24023438 C7.06907227 9.20413086 7.06907227 9.20413086 7.6875 10.1875 C8.10322266 10.84169922 8.51894531 11.49589844 8.94726562 12.16992188 C9.9683003 13.77775809 10.98461863 15.38858764 12 17 C11.34 17.99 10.68 18.98 10 20 C9.45730469 19.18015625 8.91460938 18.3603125 8.35546875 17.515625 C7.64003906 16.43796875 6.92460937 15.3603125 6.1875 14.25 C5.47980469 13.18265625 4.77210938 12.1153125 4.04296875 11.015625 C2.8262882 9.21968354 1.56522013 7.45080437 0.21875 5.75 C-1 4 -1 4 -0.6875 1.75 C-0.460625 1.1725 -0.23375 0.595 0 0 Z " fill="#7A7778" transform="translate(2218,2046)"/>
<path d="M0 0 C4.17781634 3.87671246 7.22712043 8.03587533 10.3125 12.8125 C10.76689453 13.50537109 11.22128906 14.19824219 11.68945312 14.91210938 C12.79831476 16.6045824 13.89991438 18.30180958 15 20 C14.01 20.33 13.02 20.66 12 21 C9.98875443 18.07005382 7.99300594 15.12987701 6 12.1875 C5.42765625 11.35412109 4.8553125 10.52074219 4.265625 9.66210938 C3.72421875 8.85966797 3.1828125 8.05722656 2.625 7.23046875 C2.12226562 6.49207764 1.61953125 5.75368652 1.1015625 4.99291992 C0 3 0 3 0 0 Z " fill="#E7E7E7" transform="translate(1909,1601)"/>
<path d="M0 0 C1.35156675 1.65191491 2.679762 3.32294092 4 5 C4.45503906 5.5775 4.91007812 6.155 5.37890625 6.75 C5.83136719 7.348125 6.28382813 7.94625 6.75 8.5625 C7.17796875 9.12066406 7.6059375 9.67882813 8.046875 10.25390625 C9 12 9 12 9 16 C4.9255567 14.64185223 3.57978049 11.8691574 1.3125 8.4375 C0.68891602 7.51420898 0.68891602 7.51420898 0.05273438 6.57226562 C-0.97193162 5.05293329 -1.98690678 3.52707343 -3 2 C-2.01 1.34 -1.02 0.68 0 0 Z " fill="#6F6C6D" transform="translate(2193,1944)"/>
<path d="M0 0 C4.07994986 3.80210381 7.1001225 7.8285531 10.125 12.5 C10.55425781 13.15097656 10.98351563 13.80195312 11.42578125 14.47265625 C13.69923835 17.9353063 15.89873257 21.42921874 18 25 C17.01 25 16.02 25 15 25 C13.23550392 22.50877078 11.66529046 20.06246948 10.125 17.4375 C9.27573121 16.01815628 8.42417888 14.60017635 7.5703125 13.18359375 C7.15168945 12.4860498 6.73306641 11.78850586 6.30175781 11.06982422 C5.00657816 9.01045941 3.62115849 7.05669558 2.1796875 5.09765625 C0 2 0 2 0 0 Z " fill="#C0BFC0" transform="translate(1906,1535)"/>
<path d="M0 0 C2.92650183 2.63385165 4.99930443 5.61951439 7 9 C7 10.32 7 11.64 7 13 C3.05124418 11.68374806 2.45007287 9.94634602 0.3125 6.4375 C-0.31011719 5.42558594 -0.93273438 4.41367188 -1.57421875 3.37109375 C-2.04472656 2.58863281 -2.51523438 1.80617188 -3 1 C-2.01 0.67 -1.02 0.34 0 0 Z " fill="#6A6768" transform="translate(2200,1928)"/>
<path d="M0 0 C3.61224031 3.31329629 6.17608056 6.97413942 8.8125 11.0625 C9.23208984 11.68705078 9.65167969 12.31160156 10.08398438 12.95507812 C11.14003201 14.58525379 12.0793818 16.28968674 13 18 C12.67 18.99 12.34 19.98 12 21 C7.71 14.73 3.42 8.46 -1 2 C-0.67 1.34 -0.34 0.68 0 0 Z " fill="#A9A8A9" transform="translate(2221,1987)"/>
<path d="M0 0 C1.33895632 1.66215268 2.67130142 3.32963607 4 5 C4.86625 6.0209375 4.86625 6.0209375 5.75 7.0625 C7 9 7 9 7 13 C6.34 13 5.68 13 5 13 C3.71993203 11.21601386 2.52339649 9.37146094 1.375 7.5 C0.42753906 5.96859375 0.42753906 5.96859375 -0.5390625 4.40625 C-1.02117188 3.6121875 -1.50328125 2.818125 -2 2 C-1.34 2 -0.68 2 0 2 C0 1.34 0 0.68 0 0 Z " fill="#6F6D6D" transform="translate(2225,2090)"/>
<path d="M0 0 C4.87685861 1.35468295 6.48592381 3.71675909 9 8 C8.67 8.66 8.34 9.32 8 10 C7.01 10 6.02 10 5 10 C3.61328125 8.3203125 3.61328125 8.3203125 2.3125 6.125 C1.87550781 5.40570312 1.43851563 4.68640625 0.98828125 3.9453125 C0 2 0 2 0 0 Z " fill="#646262" transform="translate(2216,2080)"/>
<path d="M0 0 C3.67768297 3.34028087 6.14403432 7.07366412 8.75 11.25 C9.16121094 11.8996875 9.57242188 12.549375 9.99609375 13.21875 C11.00205086 14.8095659 12.00167362 16.40438433 13 18 C12.01 18 11.02 18 10 18 C8.74145508 16.6706543 8.74145508 16.6706543 7.51953125 14.82421875 C7.07802734 14.16099609 6.63652344 13.49777344 6.18164062 12.81445312 C5.72982422 12.11255859 5.27800781 11.41066406 4.8125 10.6875 C4.34908203 9.99720703 3.88566406 9.30691406 3.40820312 8.59570312 C0 3.4005776 0 3.4005776 0 0 Z " fill="#6D6B6C" transform="translate(2231,1916)"/>
<path d="M0 0 C0.66 0.33 1.32 0.66 2 1 C-2.62 5.62 -7.24 10.24 -12 15 C-12.66 14.67 -13.32 14.34 -14 14 C-9.61932717 8.89662734 -5.32423478 4.12628195 0 0 Z " fill="#6A6768" transform="translate(2357,2536)"/>
<path d="M0 0 C5 1 5 1 7.3125 4.0625 C7.869375 5.031875 8.42625 6.00125 9 7 C8.34 8.32 7.68 9.64 7 11 C4.69 7.37 2.38 3.74 0 0 Z " fill="#636061" transform="translate(2208,1884)"/>
<path d="M0 0 C2.91227269 3.28804981 4.49701212 5.59885603 5 10 C0.33845958 8.50164772 -0.86610751 5.11536409 -3 1 C-2.01 0.67 -1.02 0.34 0 0 Z " fill="#676465" transform="translate(2203,2023)"/>
<path d="M0 0 C3.08089673 2.77280706 4.68775452 5.06326356 6 9 C3.75 8.9375 3.75 8.9375 1 8 C-0.67849824 5.7691525 -1.75999263 3.52594094 -3 1 C-2.01 0.67 -1.02 0.34 0 0 Z " fill="#6C696A" transform="translate(2194,1919)"/>
<path d="M0 0 C3.58806317 3.38872633 6.45684799 6.76141332 9 11 C9 11.66 9 12.32 9 13 C5.6227555 11.60724746 4.12929695 10.17726069 2.25 7.0625 C1.82203125 6.37285156 1.3940625 5.68320313 0.953125 4.97265625 C0 3 0 3 0 0 Z " fill="#8F8D8E" transform="translate(2249,2128)"/>
<path d="M0 0 C3.71279784 1.44386582 4.9486443 3.12236392 6.75 6.625 C7.17796875 7.44226562 7.6059375 8.25953125 8.046875 9.1015625 C8.51867188 10.04128906 8.51867188 10.04128906 9 11 C6.34795104 10.63165987 5.26159944 10.3132309 3.515625 8.22265625 C2.88914062 7.15337891 2.88914062 7.15337891 2.25 6.0625 C1.82203125 5.35222656 1.3940625 4.64195313 0.953125 3.91015625 C0 2 0 2 0 0 Z " fill="#E4E4E4" transform="translate(1896,1609)"/>
<path d="M0 0 C5.20699853 4.44126345 7.92118205 9.95874554 11 16 C10.34 16 9.68 16 9 16 C7.36179148 13.92710438 5.85747352 11.86719935 4.375 9.6875 C3.74464844 8.79514648 3.74464844 8.79514648 3.1015625 7.88476562 C0 3.37843699 0 3.37843699 0 0 Z " fill="#ABAAAA" transform="translate(2228,2037)"/>
<path d="M0 0 C0.66 0 1.32 0 2 0 C3.28406399 1.95224208 4.47941678 3.96340762 5.625 6 C6.25664062 7.11375 6.88828125 8.2275 7.5390625 9.375 C8.26222656 10.674375 8.26222656 10.674375 9 12 C8.01 12 7.02 12 6 12 C4.39453125 10.13671875 4.39453125 10.13671875 2.8125 7.6875 C2.28269531 6.88699219 1.75289062 6.08648438 1.20703125 5.26171875 C0 3 0 3 0 0 Z " fill="#8A8888" transform="translate(2220,2025)"/>
<path d="M0 0 C3.71279784 1.44386582 4.9486443 3.12236392 6.75 6.625 C7.17796875 7.44226562 7.6059375 8.25953125 8.046875 9.1015625 C8.51867188 10.04128906 8.51867188 10.04128906 9 11 C6.34795104 10.63165987 5.26159944 10.3132309 3.515625 8.22265625 C2.88914062 7.15337891 2.88914062 7.15337891 2.25 6.0625 C1.82203125 5.35222656 1.3940625 4.64195313 0.953125 3.91015625 C0 2 0 2 0 0 Z " fill="#EAEAEA" transform="translate(1981,1547)"/>
<path d="M0 0 C5.20699853 4.44126345 7.92118205 9.95874554 11 16 C10.34 16 9.68 16 9 16 C7.56956685 14.13955934 6.22896464 12.20946359 4.9375 10.25 C4.22464844 9.18265625 3.51179688 8.1153125 2.77734375 7.015625 C1.31401042 4.53278252 0.44217766 2.80272611 0 0 Z " fill="#ACABAB" transform="translate(2228,1972)"/>
<path d="M0 0 C3.64775386 3.88309282 4.58525633 6.71201818 5 12 C4.360625 11.195625 3.72125 10.39125 3.0625 9.5625 C1.59396498 7.7249496 1.59396498 7.7249496 0 6 C-0.04080783 4.00041636 -0.04254356 1.99954746 0 0 Z " fill="#787576" transform="translate(2222,1934)"/>
<path d="M0 0 C1.875 0.3125 1.875 0.3125 4 1 C6 4 6 4 6 8 C2.24623848 6.74874616 1.75926711 5.4347596 0 2 C0 1.34 0 0.68 0 0 Z " fill="#5F5C5D" transform="translate(2203,2001)"/>
<path d="M0 0 C0.66 0 1.32 0 2 0 C3.65 2.97 5.3 5.94 7 9 C6.01 9 5.02 9 4 9 C0 3.85714286 0 3.85714286 0 0 Z " fill="#9C9A9B" transform="translate(2237,2076)"/>
<path d="M0 0 C3.25548753 3.02295271 5.68977058 6.20462309 8 10 C8 10.66 8 11.32 8 12 C7.34 12 6.68 12 6 12 C4.4921875 10.13671875 4.4921875 10.13671875 2.875 7.6875 C2.33617188 6.88699219 1.79734375 6.08648438 1.2421875 5.26171875 C0 3 0 3 0 0 Z " fill="#AEADAE" transform="translate(2235,1956)"/>
<path d="M0 0 C3.08089673 2.77280706 4.68775452 5.06326356 6 9 C5.01 9.33 4.02 9.66 3 10 C0.70366176 6.55549263 0.45983515 4.06187717 0 0 Z " fill="#7C7A7B" transform="translate(2212,2037)"/>
<path d="M0 0 C0.66 0 1.32 0 2 0 C6 5.41176471 6 5.41176471 6 8 C2.83884224 6.63016497 2.0072908 6.0109362 0 3 C0 2.01 0 1.02 0 0 Z " fill="#8A8889" transform="translate(2215,1979)"/>
<path d="M0 0 C1.32 1.32 2.64 2.64 4 4 C3.67 4.66 3.34 5.32 3 6 C1.125 5.75 1.125 5.75 -1 5 C-2.25 2.9375 -2.25 2.9375 -3 1 C-2.01 0.67 -1.02 0.34 0 0 Z " fill="#787677" transform="translate(2189,1938)"/>
<path d="M0 0 C2.96404505 2.80804268 5.44499019 5.18315774 7 9 C6.01 9 5.02 9 4 9 C0 2.25 0 2.25 0 0 Z " fill="#DEDCDD" transform="translate(1962,1559)"/>
<path d="M0 0 C0.66 0 1.32 0 2 0 C2.99 1.98 3.98 3.96 5 6 C4.34 6.66 3.68 7.32 3 8 C0 3.375 0 3.375 0 0 Z " fill="#838182" transform="translate(2241,2116)"/>
<path d="M0 0 C1.32 1.32 2.64 2.64 4 4 C3.67 4.66 3.34 5.32 3 6 C2.01 6 1.02 6 0 6 C-1.125 2.25 -1.125 2.25 0 0 Z " fill="#7F7C7D" transform="translate(2221,2084)"/>
<path d="M0 0 C0.99 0 1.98 0 3 0 C3.99 1.98 4.98 3.96 6 6 C4.125 5.8125 4.125 5.8125 2 5 C0.75 2.4375 0.75 2.4375 0 0 Z " fill="#EEEDED" transform="translate(1950,1637)"/>
<path d="M0 0 C0.99 0 1.98 0 3 0 C3.99 1.98 4.98 3.96 6 6 C4.125 5.8125 4.125 5.8125 2 5 C0.75 2.4375 0.75 2.4375 0 0 Z " fill="#ECECEC" transform="translate(1968,1599)"/>
<path d="M0 0 C1.32 1.32 2.64 2.64 4 4 C3 6 3 6 1 7 C-0.0625 4.625 -0.0625 4.625 -1 2 C-0.67 1.34 -0.34 0.68 0 0 Z " fill="#828081" transform="translate(2209,2007)"/>
<path d="M0 0 C0.66 0 1.32 0 2 0 C2.99 1.98 3.98 3.96 5 6 C4.01 6 3.02 6 2 6 C0 3 0 3 0 0 Z " fill="#888687" transform="translate(2218,1957)"/>
<path d="M0 0 C1.98 0.99 1.98 0.99 4 2 C4 3.32 4 4.64 4 6 C3.01 5.67 2.02 5.34 1 5 C0.67 3.35 0.34 1.7 0 0 Z " fill="#615E5F" transform="translate(2198,1954)"/>
<path d="M0 0 C1.32 1.32 2.64 2.64 4 4 C3 6 3 6 1 7 C-0.0625 4.625 -0.0625 4.625 -1 2 C-0.67 1.34 -0.34 0.68 0 0 Z " fill="#838182" transform="translate(2207,1939)"/>
<path d="M0 0 C1.5 1.375 1.5 1.375 3 3 C3 3.66 3 4.32 3 5 C2.01 5.33 1.02 5.66 0 6 C-0.99 4.35 -1.98 2.7 -3 1 C-2.01 0.67 -1.02 0.34 0 0 Z " fill="#747172" transform="translate(2216,1925)"/>
</svg>
