<?xml version="1.0" encoding="UTF-8"?>
<svg version="1.1" xmlns="http://www.w3.org/2000/svg" width="512" height="512">
<path d="M0 0 C0.8054425 0.00149048 1.61088501 0.00298096 2.44073486 0.0045166 C14.39088946 0.04418173 25.88807312 0.55865334 37.5625 3.3125 C38.5525 3.53728027 38.5525 3.53728027 39.5625 3.76660156 C51.3930801 6.48740392 62.79453943 10.35526439 73.24609375 16.58984375 C78.17575731 18.12776577 83.06017547 14.65455324 87.4375 12.5 C104.54887577 4.53670367 123.71943067 0.2294396 142.59375 0.109375 C143.33851593 0.10231537 144.08328186 0.09525574 144.85061646 0.08798218 C194.66512627 -0.27606161 241.23103934 11.93211307 286.6875 32.125 C287.47439209 32.47361084 288.26128418 32.82222168 289.07202148 33.18139648 C304.08816648 40.03152409 304.08816648 40.03152409 307.5625 47.3125 C308.88041871 51.42903938 309.83851135 55.61320589 310.8046875 59.82421875 C311.40163125 62.2976981 311.99930954 64.77100028 312.59765625 67.24414062 C313.52424353 71.13299937 314.44402357 75.02310329 315.34814453 78.91723633 C316.2287504 82.68342861 317.13960891 86.44127734 318.0546875 90.19921875 C318.31740448 91.36797043 318.58012146 92.53672211 318.85079956 93.7408905 C320.21375545 100.06517308 320.21375545 100.06517308 324.63720703 104.40942383 C325.60255371 104.70743896 326.56790039 105.0054541 327.5625 105.3125 C332.23427343 110.48933002 332.9103341 113.70603498 332.84765625 120.546875 C332.3514048 125.3598343 330.02435415 128.02784029 326.5 131.125 C321.20304511 134.37152074 315.4856582 133.67826564 309.64370728 132.56718445 C308.25173316 132.22203769 306.86226855 131.86665688 305.47509766 131.50268555 C304.70379548 131.3085076 303.93249331 131.11432966 303.13781834 130.91426754 C300.58167276 130.26829979 298.02921838 129.60882983 295.4765625 128.94921875 C293.64826199 128.48416473 291.81975014 128.01994087 289.99104309 127.55648804 C285.07317615 126.30760561 280.15838992 125.04697624 275.24409103 123.78413773 C270.13724387 122.47402738 265.02756283 121.17506402 259.91821289 119.87475586 C247.4625111 116.70211753 235.01196901 113.50949536 222.5625 110.3125 C220.61606893 109.81278325 218.66963746 109.31306805 216.72320557 108.81335449 C211.19683049 107.39438365 205.67065423 105.97463977 200.14453125 104.5546875 C199.2748597 104.33126238 198.40518814 104.10783726 197.5091629 103.87764168 C189.26136562 101.75861652 181.01388307 99.63845155 172.76955509 97.50596237 C169.78956923 96.73541085 166.80914328 95.96657093 163.82864952 95.1979866 C162.45499695 94.84323402 161.08156938 94.48760895 159.70838356 94.13105392 C157.85228374 93.64912129 155.99537876 93.17029272 154.13842773 92.69165039 C153.10274155 92.42349014 152.06705536 92.1553299 150.99998474 91.87904358 C148.65489803 91.2370351 148.65489803 91.2370351 146.5625 91.3125 C145.47658387 92.89474899 144.4700854 94.53170412 143.5 96.1875 C132.58411583 113.65738839 116.44138792 124.63732795 96.84765625 130.40625 C76.20057187 135.16587671 55.17809186 132.43685715 36.5625 122.3125 C32.67846363 119.87780232 29.10543227 117.21654284 25.5625 114.3125 C24.85867187 113.77109375 24.15484375 113.2296875 23.4296875 112.671875 C17.35931867 107.7679692 13.06844459 101.61371246 8.5625 95.3125 C7.56487752 93.97738683 6.56531568 92.64371692 5.5625 91.3125 C-9.73231603 95.16343343 -25.02688992 99.01532711 -40.32120228 102.86826038 C-48.12163156 104.83331537 -55.92217583 106.79791254 -63.72288811 108.7618438 C-69.22179146 110.14631949 -74.72049899 111.53157152 -80.21912086 112.91716468 C-83.6131971 113.77235866 -87.0073965 114.62705819 -90.40185928 115.48071671 C-103.86774559 118.86721569 -117.32894304 122.26832042 -130.76318359 125.77880859 C-132.7789304 126.30341962 -134.7946922 126.82797305 -136.81047058 127.35246277 C-140.44748914 128.29921397 -144.08092239 129.25828941 -147.71260071 130.22529602 C-149.31048027 130.6424282 -150.90847003 131.05913855 -152.5065918 131.4753418 C-153.54947766 131.75908063 -153.54947766 131.75908063 -154.61343193 132.04855156 C-160.47296912 133.55549698 -165.91633918 134.23369338 -171.6875 132.125 C-175.2552811 129.77350791 -177.52971079 127.12807843 -179.4375 123.3125 C-179.96690021 118.00114048 -180.10113629 113.63977259 -177.6875 108.8125 C-174.75364872 105.55266524 -172.60464171 103.70154724 -168.4375 102.3125 C-167.4788471 100.06130903 -167.4788471 100.06130903 -166.87524414 97.24536133 C-166.60809097 96.16366165 -166.34093781 95.08196198 -166.06568909 93.96748352 C-165.78748825 92.78840927 -165.50928741 91.60933502 -165.22265625 90.39453125 C-164.92564316 89.18939377 -164.62863007 87.98425629 -164.32261658 86.74259949 C-163.36946032 82.87294238 -162.43257757 78.99965061 -161.5 75.125 C-160.27617819 70.04456766 -159.03477779 64.968681 -157.78515625 59.89453125 C-157.50897964 58.72557816 -157.23280304 57.55662506 -156.94825745 56.35224915 C-155.33038406 49.78355844 -153.996026 44.39191549 -148.72753906 39.83276367 C-118.34207076 22.02707992 -82.69478855 11.54032518 -48.4375 4.5 C-47.02561401 4.2074231 -47.02561401 4.2074231 -45.58520508 3.90893555 C-30.46914723 0.9580957 -15.37559305 -0.07105578 0 0 Z " fill="#000000" transform="translate(179.4375,378.6875)"/>
<path d="M0 0 C5.96698178 5.49956821 9.51959105 11.56646188 12.59375 19.03515625 C12.96757813 19.9375 13.34140625 20.83984375 13.7265625 21.76953125 C16.95285642 33.91899844 15.7092134 48.0756021 9.59375 59.03515625 C7.8083666 61.94376162 5.86231661 64.49007281 3.59375 67.03515625 C3.11679688 67.62683594 2.63984375 68.21851562 2.1484375 68.828125 C-5.26929102 77.2709165 -17.48911516 82.41401118 -28.54296875 83.28125 C-43.47330902 83.82327555 -56.19562876 79.01219549 -67.15625 68.91015625 C-71.90400431 63.94392121 -74.80611911 58.35219556 -77.40625 52.03515625 C-77.78007813 51.1328125 -78.15390625 50.23046875 -78.5390625 49.30078125 C-81.76535642 37.15131406 -80.5217134 22.9947104 -74.40625 12.03515625 C-72.6208666 9.12655088 -70.67481661 6.58023969 -68.40625 4.03515625 C-67.69082031 3.14763672 -67.69082031 3.14763672 -66.9609375 2.2421875 C-49.61263669 -17.50349156 -19.1216932 -15.61398 0 0 Z " fill="#000000" transform="translate(80.40625,11.96484375)"/>
<path d="M0 0 C3.5677811 2.35149209 5.84221079 4.99692157 7.75 8.8125 C8.35613732 16.91129306 7.32707783 24.28996766 5.37011719 32.12158203 C5.11629272 33.18418747 4.86246826 34.24679291 4.60095215 35.34159851 C3.76245035 38.8377452 2.90477041 42.32887882 2.046875 45.8203125 C1.44665661 48.30625988 0.84766246 50.79250313 0.24981689 53.27902222 C-1.17083453 59.17495681 -2.60349937 65.06784918 -4.04221034 70.9593991 C-5.78724725 78.10812761 -7.51485474 85.26103575 -9.2421875 92.4140625 C-11.09141208 100.06935023 -12.94337641 107.72392602 -14.80871582 115.37530518 C-17.82632462 127.75793302 -20.80976958 140.14668702 -23.70898438 152.55761719 C-24.5220669 156.01886467 -25.33589659 159.47993576 -26.1498642 162.94097519 C-26.65911712 165.11860277 -27.16402147 167.29725249 -27.66428375 169.47696304 C-28.34980797 172.46365374 -29.04985545 175.44659943 -29.75292969 178.42919922 C-29.94789787 179.2984692 -30.14286606 180.16773918 -30.34374237 181.06335068 C-31.76800738 187.01749506 -33.60136359 191.48491043 -38.3125 195.625 C-42.4161065 198.14011366 -46.56893831 198.30103585 -51.25 197.8125 C-56.59740414 195.85864079 -59.70618143 192.90013713 -62.25 187.8125 C-62.85613732 179.71370694 -61.82707783 172.33503234 -59.87011719 164.50341797 C-59.48938049 162.90950981 -59.48938049 162.90950981 -59.10095215 161.28340149 C-58.26245035 157.7872548 -57.40477041 154.29612118 -56.546875 150.8046875 C-55.94665661 148.31874012 -55.34766246 145.83249687 -54.74981689 143.34597778 C-53.32916547 137.45004319 -51.89650063 131.55715082 -50.45778966 125.6656009 C-48.71275275 118.51687239 -46.98514526 111.36396425 -45.2578125 104.2109375 C-43.40858792 96.55564977 -41.55662359 88.90107398 -39.69128418 81.24969482 C-36.67367538 68.86706698 -33.69023042 56.47831298 -30.79101562 44.06738281 C-29.9779331 40.60613533 -29.16410341 37.14506424 -28.3501358 33.68402481 C-27.84088288 31.50639723 -27.33597853 29.32774751 -26.83571625 27.14803696 C-26.15019203 24.16134626 -25.45014455 21.17840057 -24.74707031 18.19580078 C-24.45461803 16.89189581 -24.45461803 16.89189581 -24.15625763 15.56164932 C-22.73199262 9.60750494 -20.89863641 5.14008957 -16.1875 1 C-11.04600443 -2.15123922 -5.48396699 -2.00375717 0 0 Z " fill="#000000" transform="translate(335.25,81.1875)"/>
<path d="M0 0 C3.0684336 1.69584354 5.13937318 3.36008582 7.60624313 5.82752895 C8.86378151 7.07454586 8.86378151 7.07454586 10.1467247 8.34675503 C11.04773407 9.25540813 11.94874344 10.16406124 12.87705612 11.10024929 C13.84942553 12.07018838 14.82243998 13.03948118 15.79604721 14.00817776 C18.42872007 16.63147282 21.05192687 19.2640467 23.67323208 21.89869475 C26.42080559 24.65761093 29.17611488 27.40878249 31.93033981 30.16105556 C36.55208073 34.78191462 41.16781467 39.40870716 45.77988815 44.03921413 C51.11088323 49.39139393 56.45067286 54.73467169 61.79538608 60.0731501 C66.94084414 65.2129132 72.08061214 70.35832853 77.21760941 75.50654697 C79.40241988 77.69599975 81.58910036 79.88355938 83.77728653 82.06963825 C86.35268329 84.64315101 88.9230265 87.22160794 91.48955345 89.80396557 C92.88135297 91.20202836 94.27805579 92.59520442 95.67489243 93.98823452 C96.50197205 94.82239895 97.32905167 95.65656338 98.18119431 96.51600552 C98.90161785 97.23848193 99.6220414 97.96095835 100.36429596 98.70532799 C104.34851551 103.26060474 104.57007693 107.1463931 104.46006393 113.03994656 C103.89405868 117.80267369 101.57418853 120.47469312 98.07725143 123.54775906 C94.05628373 126.01222314 89.73933386 126.41190516 85.13975143 125.73525906 C80.94894609 123.88217427 77.90542164 121.87590206 74.67325974 118.64298916 C73.83490082 117.81164455 72.9965419 116.98029995 72.13277817 116.12376308 C70.78126411 114.76078342 70.78126411 114.76078342 69.40244675 113.37026882 C68.43007734 112.40032973 67.45706289 111.43103693 66.48345566 110.46234035 C63.8507828 107.83904529 61.22757599 105.20647141 58.60627079 102.57182336 C55.85869728 99.81290719 53.10338799 97.06173562 50.34916306 94.30946255 C45.72742214 89.68860349 41.1116882 85.06181096 36.49961472 80.43130398 C31.16861964 75.07912418 25.82883001 69.73584643 20.48411679 64.39736801 C15.33865873 59.25760492 10.19889073 54.11218958 5.06189346 48.96397114 C2.87708299 46.77451836 0.69040251 44.58695873 -1.49778366 42.40087986 C-4.07318042 39.8273671 -6.64352363 37.24891017 -9.21005058 34.66655254 C-10.6018501 33.26848976 -11.99855292 31.87531369 -13.39538956 30.48228359 C-14.63600899 29.23103695 -14.63600899 29.23103695 -15.90169144 27.9545126 C-16.62211498 27.23203618 -17.34253853 26.50955976 -18.08479309 25.76519012 C-22.06901264 21.20991337 -22.29057406 17.32412501 -22.18056107 11.43057156 C-21.61455581 6.66784442 -19.29468567 3.99582499 -15.79774857 0.92275906 C-10.80522269 -2.13717616 -5.2482971 -2.3206851 0 0 Z " fill="#000000" transform="translate(70.86024856567383,169.2647409439087)"/>
<path d="M0 0 C5.12084215 3.37510051 7.09471229 7.02722637 8.75 12.8125 C9.39132389 16.16361944 9.87495848 19.53247543 10.35400391 22.91015625 C10.50059952 23.91266922 10.64719513 24.91518219 10.79823303 25.94807434 C11.28020971 29.25622936 11.75382257 32.56551327 12.2265625 35.875 C12.55980303 38.18704123 12.89325147 40.49905251 13.22689819 42.81103516 C13.92503265 47.65911619 14.61868259 52.5078148 15.30957031 57.35693359 C16.1912148 63.54039881 17.08686588 69.72174219 17.98635292 75.90263367 C18.67950362 80.6803579 19.36356666 85.45935175 20.04514694 90.23873901 C20.37133073 92.51631441 20.70061904 94.79344761 21.03319168 97.07009888 C25.74145845 129.37613393 25.74145845 129.37613393 22 135.5 C17.84123606 139.77428516 15.0299742 141.6629935 8.9375 142.0625 C3.64962936 141.97517737 0.20407056 140.30696141 -3.5 136.5 C-7.23894977 130.75804143 -7.91132113 124.36156531 -8.85400391 117.71484375 C-9.00059952 116.71233078 -9.14719513 115.70981781 -9.29823303 114.67692566 C-9.78020971 111.36877064 -10.25382257 108.05948673 -10.7265625 104.75 C-11.05980303 102.43795877 -11.39325147 100.12594749 -11.72689819 97.81396484 C-12.42503265 92.96588381 -13.11868259 88.1171852 -13.80957031 83.26806641 C-14.6912148 77.08460119 -15.58686588 70.90325781 -16.48635292 64.72236633 C-17.17950362 59.9446421 -17.86356666 55.16564825 -18.54514694 50.38626099 C-18.87133073 48.10868559 -19.20061904 45.83155239 -19.53319168 43.55490112 C-24.24145845 11.24886607 -24.24145845 11.24886607 -20.5 5.125 C-14.53813342 -1.00247399 -8.22037605 -3.00359894 0 0 Z " fill="#000000" transform="translate(215.25,137.1875)"/>
<path d="M0 0 C3.5677811 2.35149209 5.84221079 4.99692157 7.75 8.8125 C7.83308638 10.18798156 7.85736016 11.56735796 7.84765625 12.9453125 C7.84443359 13.75097656 7.84121094 14.55664062 7.83789062 15.38671875 C7.82532227 16.64935547 7.82532227 16.64935547 7.8125 17.9375 C7.80798828 18.78699219 7.80347656 19.63648437 7.79882812 20.51171875 C7.78702874 22.61200909 7.76909306 24.7122633 7.75 26.8125 C9.48636719 26.76029297 9.48636719 26.76029297 11.2578125 26.70703125 C12.7968604 26.67887793 14.33592411 26.65157944 15.875 26.625 C17.01582031 26.58729492 17.01582031 26.58729492 18.1796875 26.54882812 C23.13868406 26.48470317 26.44765732 27.07405564 30.75 29.8125 C35.42177343 34.98933002 36.0978341 38.20603498 36.03515625 45.046875 C35.5389048 49.8598343 33.21185415 52.52784029 29.6875 55.625 C26.67420017 57.47186119 24.19477382 57.93614492 20.73828125 57.91015625 C19.60229492 57.90532227 19.60229492 57.90532227 18.44335938 57.90039062 C17.26483398 57.88782227 17.26483398 57.88782227 16.0625 57.875 C14.86657227 57.86823242 14.86657227 57.86823242 13.64648438 57.86132812 C11.68095743 57.8495585 9.71546915 57.83162348 7.75 57.8125 C7.79640625 59.04226562 7.8428125 60.27203125 7.890625 61.5390625 C7.92816036 63.1718506 7.96455862 64.80466511 8 66.4375 C8.05027344 67.64986328 8.05027344 67.64986328 8.1015625 68.88671875 C8.19107501 74.39173813 7.4087336 77.43689808 3.75 81.8125 C-0.28488765 85.35831036 -3.81661409 86.11610179 -9.19140625 86.02734375 C-13.59959672 85.56728592 -16.43150829 83.63099171 -19.5 80.5625 C-24.08590144 73.35608345 -23.47464899 66.11203197 -23.25 57.8125 C-24.87808594 57.86470703 -24.87808594 57.86470703 -26.5390625 57.91796875 C-27.98435942 57.94612388 -29.42967321 57.97342219 -30.875 58 C-31.58785156 58.02513672 -32.30070312 58.05027344 -33.03515625 58.07617188 C-37.86258782 58.14260442 -41.05380965 57.45153477 -45.25 54.8125 C-49.92177343 49.63566998 -50.5978341 46.41896502 -50.53515625 39.578125 C-50.0389048 34.7651657 -47.71185415 32.09715971 -44.1875 29 C-39.95617558 26.40660761 -35.848267 26.69566378 -31.0625 26.75 C-30.31291016 26.75451172 -29.56332031 26.75902344 -28.79101562 26.76367188 C-26.94397617 26.77543646 -25.09697787 26.79337135 -23.25 26.8125 C-23.30220703 25.56146484 -23.30220703 25.56146484 -23.35546875 24.28515625 C-23.72876949 8.76651122 -23.72876949 8.76651122 -18.8203125 3.1875 C-13.17909265 -1.75207559 -6.89468409 -2.51921149 0 0 Z " fill="#000000" transform="translate(463.25,9.1875)"/>
<path d="M0 0 C3.5677811 2.35149209 5.84221079 4.99692157 7.75 8.8125 C8.27113171 14.04090334 8.39273534 18.45286754 6.125 23.25 C1.25213857 28.50756102 -4.69747026 31.03243414 -11.2109375 33.65625 C-12.09417191 34.01844635 -12.97740631 34.3806427 -13.8874054 34.7538147 C-16.79756966 35.94592638 -19.71128106 37.12910647 -22.625 38.3125 C-25.70248911 39.57080499 -28.77899444 40.83149464 -31.85545349 42.09231567 C-33.99835013 42.97039275 -36.14155403 43.84772032 -38.28504944 44.72433472 C-51.59618448 50.17154343 -64.86282155 55.72539402 -78.13226318 61.27319336 C-81.1125568 62.5189261 -84.09336101 63.76343038 -87.07421875 65.0078125 C-87.96273026 65.37983795 -88.85124176 65.7518634 -89.76667786 66.13516235 C-90.98758369 66.64470963 -90.98758369 66.64470963 -92.2331543 67.16455078 C-93.29411568 67.6082048 -93.29411568 67.6082048 -94.37651062 68.06082153 C-99.97191192 70.30579965 -104.85831889 70.68638348 -110.5 68.625 C-114.0677811 66.27350791 -116.34221079 63.62807843 -118.25 59.8125 C-118.77113171 54.58409666 -118.89273534 50.17213246 -116.625 45.375 C-111.75213857 40.11743898 -105.80252974 37.59256586 -99.2890625 34.96875 C-97.96421089 34.42545547 -97.96421089 34.42545547 -96.6125946 33.8711853 C-93.70243034 32.67907362 -90.78871894 31.49589353 -87.875 30.3125 C-84.79751089 29.05419501 -81.72100556 27.79350536 -78.64454651 26.53268433 C-76.50164987 25.65460725 -74.35844597 24.77727968 -72.21495056 23.90066528 C-58.90381552 18.45345657 -45.63717845 12.89960598 -32.36773682 7.35180664 C-29.3874432 6.1060739 -26.40663899 4.86156962 -23.42578125 3.6171875 C-22.09301399 3.05914932 -22.09301399 3.05914932 -20.73332214 2.48983765 C-19.91938492 2.15013947 -19.10544769 1.81044128 -18.2668457 1.46044922 C-17.55953812 1.16467987 -16.85223053 0.86891052 -16.12348938 0.56417847 C-10.52808808 -1.68079965 -5.64168111 -2.06138348 0 0 Z " fill="#000000" transform="translate(439.25,225.1875)"/>
<path d="M0 0 C1.38162827 -0.00200912 1.38162827 -0.00200912 2.79116821 -0.00405884 C19.40741292 0.00115334 35.65730268 0.93716708 52.125 3.25 C52.98689941 3.36746582 53.84879883 3.48493164 54.73681641 3.60595703 C68.24955044 5.53875909 68.24955044 5.53875909 73.125 11.25 C75.9983313 15.95823058 75.76086081 20.89946393 75.125 26.25 C73.1226035 30.254793 70.94501123 32.9087028 67.125 35.25 C60.20198186 37.55767271 52.68841037 35.89680846 45.625 34.875 C38.48874616 33.87564862 31.40277269 33.08555296 24.21118164 32.62890625 C13.64748972 31.94608537 3.83007602 30.21810041 -6.41577148 27.57421875 C-14.00215637 25.63377832 -21.57637242 24.1482319 -29.3125 22.9375 C-30.83025024 22.69894287 -30.83025024 22.69894287 -32.37866211 22.45556641 C-35.2077779 22.02699108 -38.03901152 21.63019246 -40.875 21.25 C-41.61379395 21.14397461 -42.35258789 21.03794922 -43.11376953 20.92871094 C-51.42140463 19.90092482 -59.81361598 20.09987764 -68.16992188 20.11962891 C-70.86854674 20.12498719 -73.5670052 20.11965981 -76.265625 20.11328125 C-84.53295056 20.1104186 -92.66281706 20.17215099 -100.875 21.25 C-100.875 20.59 -100.875 19.93 -100.875 19.25 C-68.54996028 5.30031145 -35.06166213 0.03015905 0 0 Z " fill="#000000" transform="translate(403.875,330.75)"/>
<path d="M0 0 C-0.33 0.66 -0.66 1.32 -1 2 C-2.30815674 1.83991455 -3.61631348 1.6798291 -4.96411133 1.51489258 C-9.51076386 1.01208734 -14.00255239 0.80900048 -18.57421875 0.76171875 C-19.36775253 0.75187958 -20.16128632 0.74204041 -20.97886658 0.73190308 C-47.69871102 0.46972245 -72.50223395 2.9532302 -98.50634766 9.49121094 C-110.74194793 12.44004984 -122.94439918 13.49372966 -135.46875 14.39453125 C-141.71283097 14.84542997 -147.8572955 15.61689539 -154.04296875 16.57373047 C-160.43706104 17.49546801 -165.38361958 17.70170528 -171 14 C-175.67177343 8.82316998 -176.3478341 5.60646502 -176.28515625 -1.234375 C-175.8061551 -5.88003001 -173.64149611 -8.55374792 -170.2265625 -11.5625 C-130.72323232 -37.06640439 -38.53354333 -17.80022661 0 0 Z " fill="#000000" transform="translate(209,350)"/>
<path d="M0 0 C3.5677811 2.35149209 5.84221079 4.99692157 7.75 8.8125 C8.27940021 14.12385952 8.41363629 18.48522741 6 23.3125 C1.96243575 27.7986825 -0.92422644 29.65999026 -7.0625 30.0625 C-11.12306094 29.99544487 -13.81188674 29.0785292 -17.25 26.8125 C-21.92177343 21.63566998 -22.5978341 18.41896502 -22.53515625 11.578125 C-22.0389048 6.7651657 -19.71185415 4.09715971 -16.1875 1 C-11.04600443 -2.15123922 -5.48396699 -2.00375717 0 0 Z " fill="#000000" transform="translate(31.25,257.1875)"/>
<path d="M0 0 C3.5677811 2.35149209 5.84221079 4.99692157 7.75 8.8125 C8.27940021 14.12385952 8.41363629 18.48522741 6 23.3125 C1.96243575 27.7986825 -0.92422644 29.65999026 -7.0625 30.0625 C-11.12306094 29.99544487 -13.81188674 29.0785292 -17.25 26.8125 C-21.92177343 21.63566998 -22.5978341 18.41896502 -22.53515625 11.578125 C-22.0389048 6.7651657 -19.71185415 4.09715971 -16.1875 1 C-11.04600443 -2.15123922 -5.48396699 -2.00375717 0 0 Z " fill="#000000" transform="translate(399.25,137.1875)"/>
<path d="M0 0 C3.5677811 2.35149209 5.84221079 4.99692157 7.75 8.8125 C8.27940021 14.12385952 8.41363629 18.48522741 6 23.3125 C1.96243575 27.7986825 -0.92422644 29.65999026 -7.0625 30.0625 C-11.12306094 29.99544487 -13.81188674 29.0785292 -17.25 26.8125 C-21.92177343 21.63566998 -22.5978341 18.41896502 -22.53515625 11.578125 C-22.0389048 6.7651657 -19.71185415 4.09715971 -16.1875 1 C-11.04600443 -2.15123922 -5.48396699 -2.00375717 0 0 Z " fill="#000000" transform="translate(263.25,49.1875)"/>
</svg>
